<mxfile host="65bd71144e">
    <diagram id="roCfPZJs2EcQIM5vRNm8" name="Page-1">
        <mxGraphModel dx="1248" dy="481" grid="1" gridSize="10" guides="1" tooltips="1" connect="1" arrows="1" fold="1" page="1" pageScale="1" pageWidth="850" pageHeight="1100" math="0" shadow="0">
            <root>
                <mxCell id="0"/>
                <mxCell id="1" parent="0"/>
                <mxCell id="2" value="" style="shape=stencil(rZzZrlu5EUW/5r4SnIfnTuc/Gmh3bMSxG25n+vsUc0FJ3JTWiYG8XctVRzxkDbt2FfWWfvrj4y+/f3iL/o/v377+9cM/P/36/eNb+tNbjJ++fPzw7dN3++st/fyWfvrt67cPf/n29e9ffn3/9++/TMn519++/mM+4V/vetmVOJWi//f7B8mF8t8P/vwu/vnTl108bOLZ5Y7iZRMvLlcUr5t4dWWgeN/Em+u4mLqvfbiEi6n72oN3A+Wb3+XjesIreXl+dqmRfN+XH6oLHuX33Qm2PZHkR97lhysJ5dsmH4OLuD9jX4+Zmv8hefsE31fl69X7iny/MB/ZnxScR/ku8smljPYgnlhcxfWLbyU7X/SWtD8/e+fR3vzujDm6AOtPro1dPqN9Jpd3+8nFDfAXC0wi31wF+4xrN27yw8VA8hIeincNn5/SLh9dhPeNzu/rKclVsP/g+v6+pbgA9hY0XpW6LOqFfN7tv3SXYP/D8b5jRYAX8nGXr2FZ7Av5sPtLTWvHXsnv51UzZoug+1/N3vj5ezyvzSU4X5Pf/at2V8BfwrKWm/xAfz/2v3lXcf/Fv1q4sAexn2YehOfV9/jQEubHqPvZCsbPuLLzTb66COs3/xU00NaOvZCX+N+6yxAfkouynwOxj3n3/r7du4LxcOzn2+3EMb/IenrE/ckrmt3kLaLC/hQXd3/slhHAnovik37LmE/lq8vy/LIy5lP5pv7eOb5ZNpT3behf/TivvrDxU/mxrOUmb59QfPAaIIbHBGkK/VBADw4rAN4UAkJKQ6jyDqZAPhxuEOamEDnI5UPhIqpbhTBUgdK8oWA555Exz4e+9uRBoRMw8JqZhi2SIktcge1BAUPj4cujrm14rlC12DAFSmaz1tmj+2gc7eKxrTeHeq5QF5q5KXTEQwY/R1SFAksyfFiaKjSIkAbgBCKP4TwsyRCWetxAzGWQJnlVIJBgGEKL0LFw7fMollZQeXhpSsvt9t8PChSXLA1I4TFPGpZkcVQqIVOIsCQLKuWwVooa5pBZjK+savm5gvmDbGvGdxi32uFBIYCL2iZ6+YaE6XxavwSBiJHPFATw2L5F2qW+8MFDfqBwfyrMlPVjCuyiU2GP3mYsFMjutvmQ1clan3xDQdphHOHeDH6ATz9RiFhYTAV5B2YG7oHxAUp6iK3T+PaXNizcaElNyZmWEQyPpmyRVQuVv0HCjJU7nQ7u+Aarv67eQQrIyEvqaxMfKtQLFw27x1nJXC4O7qzhKS51DWSTVGCfLrtCbghOpoLQIpnPoWtSzLdK7qXCbq2pr8z9P/q0YQPP7xAPqoyopjMYJ49crtmS5AcrD/DgmuLWyNXqxF/7tk4Cis6hLir8puC53igHQdtXCfVKQYzPsDIxuuOkgDNSqDNPC4edGAnkhb9uCoHzdFKO36qiSueQFmC7s/xUPoyocayzv0VtmPRV1r3CPkJDNudZXmhasxOQtwwuUZJLjVkEe5GvhA6L0roFWWxLrrI/BVn+7rUNkl0D+da0PszoBJOU0udT0d38IkVuoQXdeCYxCXbIClnFILQ6N9wsIwkqjFiGlaA0WMQcaOlFWImIFU8+6sKAXRPLFa2KPIGpVFZT4i5P9pbCOp67PJ3v3f2WvF8H+KrSFpqTWddYtZry6F8mX1WeEPZsiTaRJ7z8TD4S62rrySJP9jDft4g8VTlzP4fKE5fS1F88lvAmH3X9hD1MPh3rIaqmaXzzyKLGo+D3WNRNeV0/dWWePZ9a7HP9SeQLy2d9fuX1R7UHAu3zfLvIN7b/caznwj4P/6XzemL/RFXEqgDFMzdYdcbBr4T/cj2H/fD+SD7yizd/6Y+Hv/D5en3+hT8G3Z//p7zF/8MekNcs5/OpELD81TV+4hRCPDA059MjXgWkZCy/Cx4LWEUbfpA2YER7MHwSVJ7wZz0o04hdc8NXUfEP4eGWte2TkGA1fFj1+VTSG/7UsQ6kVydbustnxrdV41vGLl0/mJu8EtQr/K9jFExhHD2iwqxkXBT7XR7L2qT5tF7Va0o84RTLOOyhc32XtW0+MD+avNiPFZxYNBcFlFbSkgfMslwQbkKXnIW/KGQmwg5qwQp/CoqTvJBv6Fd0oXBCM+yCWU8ybzeLGSdI4eB5Y+HCuSsQjQ2R9+wFyQAVp2JTEEY/XRzcUHok8ciJKehMV1/p7ZWCVPNXZN7QciNz83MuSeIX9wHHOOaKPFb042hNTlKVOKGxIugDbXt10hLzBrcxhoKcGrFKNOMTlqFehMl+kNud2fB+jKuEq13SnkHGzDm3VQaA6tXBCc/buL06bWmPS7NRQgzmUDA7WzG8JEEjPeFQoSlIE7oXbroNDWQXDavgvRrTRU/smcbFKMq5qMFtt6H2Ohg2z40VWjVwhhiKkwxJUOEyhhamc1KET0KQ6sQS3MiQyDSTPTeJ4zn4QQr5GJqoiN4mOyxd5YZDE/1oWc3MSngyKd9ybwA9B9BHoLlHklcMq27rwG+oB8UxrQu21WoSGY95cJHnVU9xrR1fwaMi50sQD5HLEwVyueyVqJwBlwdqdGqC+24pHjMNnbmdI0XMjiiRTQcZPRtrpJCUPZ32TXRNUEAzuNMdxpPZkkgK7RiSKzxVd/TdTIG6k4bOdYQt4znMptkR+nC0OmqTYpZd9A3hUGD4HfwR+uKCy88jmZYcMz9QXay03GAerysNfG98PY9KuqWdRyxuXbaHlEvYvmibxZJ6IB7mSOkVHeGYm+zcd0ta/XTmDQ6Ts0RBfbSoAdWQGKXCqPbQue8T1+7d5Jk3DgdtMJCXPuKK5TniSY42bLsAbTqR0Cra/9H2bAXhkdeLd415J3+sP+I0tldc0ZhX9OqPjWeTD0hbuS9/yvNtCq+zPxe3NbwW/xe3QY73rcyz+eP2SMLbVl5p6XlbBvczHiUtxUOv0/alX+yP3oaqeFvJK/Kdt5VoClv334p+vr2j78s8dtC2Z2GeP+gYSB7c19OZ8NwQ9EadxTEASZg3HjQz375IGn9yxHml4zZL5j5s0vgzbxuCPSTNj4nnTJKi43lbksCuljXzNibs53G75uK25ynPt0lPeb6tmpR3uLgNm7TNFW9F0av9kZKJi7Jj/+dtYcYb+/rnbWTcH6n5whU+Eapo3qbG95VybN7WxvMVenngZaukI77t4nQFPfNF9qTMG1+TTxoL+RJ+OmhrLPKOV00I/JOytxHnz5LGwXjhhkWfTmz1EXVusPWV0etiaDg3HTfGUTyfk1W0mKyNUX7VrFPqvJHHpCYf0/E7D2wEP/4rEixuf9x/sOK3T58/v//exeP/6w9c2EfvP46Rfv4P);lineShape=1;" vertex="1" parent="1">
                    <mxGeometry x="237.99974592708122" y="203.95272891170134" width="119.62842682781817" height="181.34350938693115" as="geometry"/>
                </mxCell>
                <mxCell id="3" value="" style="shape=stencil(pZzZrhy3EYafRrcN7su147yHAcuREEUyZDnL24eM0D3Dv3o+6iB38nHVNJda/tr4Lv70x4dffn//Lrg/vn398vf3//r467cP7+Jf3oXw8fOH918/fhv/ehd/fhd/+u3L1/d/+/rlz8+/fv/v33+ZlPNf//jyz/kL//7O545WJ1Nw//n+h3aU+L8//PU7+aePn4m8H7UieV/IvTuyI/ruV3p/hIL0YaUPh+ffF/p4uDfRp8Ph8fS40ufD8/rLSl+O2JFezrMeNb+m9+dqL/p+BNivP/x6/uOLFfbrz1+76MMRA9FHoY/nCb+gT0Kfj8z0baWvh8f157TSt6N6pF/PP7ojgPz7U5kuen80XE9Z1xPjEUF+Bn1e6dPRUB6Ufshbewt9PTX6Ff1qHmI/Et5XXe83XRL+in49nxSOjPut63pS2shDXe835Y38N1l/3Zyn0vdT416tZ5Xn7DbyU1d5y+N88PdF3nLa2AfRl5yPjvRJ1lOPjPIc5feHvUpof1b7WdxmPV7oA/qjYT9X+SlDfkCejX0u43xAPgf9ut9STwn/MX9a+mnxXtGv+ls93u+gX+1/DafDf0W/ynNNR0L/1VZ5qOVwb9lv3cmPk/W3o6H8iDw0dzjU37ieZxvnifZK/EULR0J/0VZ5aPEoIG/htGYXfUL5GV9fz6flo+Hviz1p5bRIt/TxvM2LvqI/vbzbRd/Qnkf1R62fFuMFvehXd6dG39IP6xeVvsD9Jr2v7tFf5NMaX/QB77foffWI9rwo/uyMr6ra856OCOtvpzV+oq+gj/1wq/z3fJ7wvfyP6ynKgA7Yn/b4YihHII8X1MUMhkImYlh8CXkq24gBqQwDGUXfTFA1UBacqjUrvR0eljTkVHDxYEhwrEMwilMGOqVoLPtgIMsSk4YOg6GDag7kqbrZWZfd4bsyeNhDiqctf2Yg7S8aznSGKwPthWwY4AvZGPgdQzIWoKPGDUAmEHBumkzSiHiCuQfAFANiFTFi7JQHxhIr3zkpUcqRqzIkMpPtVMhnBYIvVKdAc6ooOKqBsyRzMBgySGuNJxB9Ygig0wNpSe5gGLJODOXO8oGZGVirGNtK3mGCLbnpzEvqGt8MhgLHOuCZBJiDAR2WiXAGA2VwBkBTy8cu7oHQnhgoR/GAaM9OlxiyuemEWaV2Sc4zDIB7GKhL4vDBQDhvwKJggQkca7f3EDFzMoCRhFLzL8SQjIoGtBpTcqoy4JKG9MumPfrpB1B4Ykgg3oOhFGVwxNBOyXkCrCRL05KuNz0QNCHcwVAFcjeErN0YgVYROnQDf0aQQUHtZJCoKiP8uWFICH9uGCLapYld5FgD+rjJIKfkMVMwGdabHraQdHoySOzfMXc3GVZpHfacDNnD7z9F5xTNPxDexZCPtGGQfEFknW4mweAxYTD1Yd104YiyX2fylLJxgDWsig58k/kLEjQNBEUAa0IRkzUj3NoNus8FQeJgkLxHjieSfcUghYTsEHtP7GIyqRRlDYa6fiFxaWYwSKw7c81s7tN6cbGxeF/o6GLICOFmqCrp9cBmpmhIM+Iuv2FYHcqI7CghMBnWJYV85vheMqybDhFT1IPByRfCGfS/8tPdFKWoqDBTBusXfGNTmVU0ZlmNNp01UhxBP+WtugHrPmPieWLI1S75hJnDByS8GCJjjYHwVvH24Uh0DyY89hvbGhTdz+ovYz5FlXyqprzWeEFe8VhldXMnpr0sMeY0ZnJR6SlDMaCXXHLGsHXQi3ImxJ8zmSrlL8yNDXo5n4j7bVXTvfGs197TF73fiNZrwrpV4gKalgHSBF8EDEpa0Jg7oFcbiKsFoXdwPtWgQo+2dETo2i6B8llNJOkRsNVLwR/0mCbpGm37MwJ6lYcRMOVR3krUtKTHamhxZ3PHg57Of6AasQ8Ond8ANVI+cpjkSV2hncP7TcbPOKzWpKDlR3fa7PsUadMg23H1JWmIsKH3qo9MP8xr0vNH+qjl+g29yfAy/XDSTe8X6aNmLjf07m30pprC5AZecm9OOn3nEzkIs/G9Diu/QQG+45LFqahP5NiXYAUT2x7EzjpMUXg1s47rM/bXI9Zwzdqphe3mZLCUY8+dsvU3t0oWNmiGi6O2cDarPW0V7J9xPw5rGUGT9A69lXHmDp3/VYh/khlUj6TXxNoUVbUJuQRrCTbKpyLG5M6QszYZK4w9F11Phg7yRvkoG3Knq2w41EZGlEinMsMCLPh4px7ekKMAv4k8WTBBqeIb74F1ECuRlIO6c31If+Nakf7GdRP9HTRA+hvogfQ30Ibo76AT0t9AM6S/gX6UlbyDlkifLZqgXNiExuZ8qG59A71JtXKx+8VQw2mfCBuGGZrofVFj9gx9jJ0CNz5DK1V2LA8HDZWuSujL0FB9LRnxEXoaK054rprqAjfuNjsJwCVMU4a9Wu/u6ZMNDSl11Ezxz6M/nyUp6aQ/M3qvUiMi/wFh3Uy9SFYUs3ezCCdJUa5Sd5t6wfM0lfnE+XtTEN40hjnt8cicfPSaZi7YaTNTg6v8VxwMsanHhqmFQa+tDlx9iAqVPXcizoq9CJznHSSt0fjA5Yqkze5zGIaWlPWMPHfTz7y65He4/W8wqJUoOP8wqw+yJG4QtjX82X3HNRodKXGoObOpZrWkmyxhN65jk3adpS/5wrZGI228swpENcuiFZRZZ+KijqhD5MbWblKds1bGxyr9ILMax1VR8QiJs3+z30qy5ZELhFVDyFmz5C+I088bI1DVKw+c5ImhaQyRC/rZ2SgnX+CJlFkwl5EIz8dqGhdKYlPfjakvZxv3KwbR6YGusJGnq07PLgHadFdvO9v1qMLetTo9Ox1IWrsa47ppK+jaNVMbZrEGwxv7QbrmAXYdJ10bSHY9LV11etM1453TgH025lBy4oYjYc/JHUfmdgp7UGUnHdrxVHGMdkqHacLCInvXcK3xoO5UOmlVc7uuLW2h9Vygriods3uOe0i0ty1gjDc7PJwyYL05ay/P7DEk05TO6b6LIWL76fjfOgARTx/wCreKb9+0bnZnmtYT5ptnr2dVBuxXraZvmIeMhvRLGbxfXemvgjcdo8nohIbSiz7s2oCD6bm9sOk9g5nU7Dwp1ewAREG8PqyvduoXrCvMkNv2bxNDVdjXGZ/UcsacTwyEdYdT03GdykuKGhE8zMKrvIcY42F4SLyr08C780hZuXpGnhjIthYD8HcTE0kBfucewzkxYWYyKEk+ZzIMAzUw5WpGLDpues6VmC8QKLudXKEMUeq6hydPfM9RbuZ1CG/MAZ9mGOgLznjFjj5rDikZ2cCBSTtdxv3Y0YzcbmQjVDMc09HOhAsfPcs3MZip8Eff7j3Eagp2NwM+vpiLazx3mzSd1jnine+GGEuGk/MmoTkDTgJMmpCdQTZ5UWO8CzbfVO1Nmg6LLOvNpCWFZXaqMaN2ZjPak7AemzX67tzPm4weRIQxyew3YBwQDWJguBqN1vjTFryglxru7DbE6qCOJPRNBVp7Ixsax6B+c6akuahsRr3JC5qnKSZMxFF7Sa4MlMhPgwQTGVIsaZ7emSUHfKpH1+9RfpyJwLixw2mBoTa0WE6jo/k0Aj69IPo1n17A/cq47fZpB+lln09H4NMX4ryrRy9jcN18+gLXL/ZqPq0B8mnOv+TN+cso/4B5JM9OZ7YLV3icgsbCFTmnYd1mCOT6tYueHZ7TJEfOm6c1pMCceWjRPMWRA1ZQvRYjssMAzas8J0btlr5iBdgr8ptPB/HTNWZ+hZqhvQLFxMkNf6KRi95jQtFrunw+3cT3K73iu6ehlH739JTSc7O7kbf5dBaejyDEyP7dayAauYPAabp1Irq3PHUzK5ZoTwRDz8dFUN8lbz8fR0F68V+Pbr8fs5+PFf6Y//IdC0Dm2QFfsYXUNHyMIIL9teAZz0OlThtWtk8Divxsnx7U3989bSh9pNunE/VpwN3TjBpRbV5+FPLdu5KCztvGGYmxahvZ9LoYih4N9GmYdzaS3NCQO/MG0+ZJsfw28mLIcTFVD5K3KiBjd5BND5Kvqb1NCP6/p0uVfPzj8Urqbx8/ffr+yOrz/9dXVcefvr/IGn/+Lw==);lineShape=1;" vertex="1" parent="1">
                    <mxGeometry x="397.6455584379871" y="217.70820846753531" width="220.90816909883813" height="177.18915764152354" as="geometry"/>
                </mxCell>
                <mxCell id="4" value="" style="shape=stencil(lVvLchw3DPyavbL4JnF2nP9wleVIFUVyyXIefx+gtji7bM70yDdp1RhxSKDRALiX9OnH45fvD5fof7y/vf758M/T1/fHS/rtEuPTy+PD29O7/nRJny/p07fXt4c/3l5/vny9/v79iyHtp79e/7Yn/Hu1864HM4r+v+sH4tL1g9+v8Oenlzt4cH6Gh+CE4qOf8cnVyPAZnl9cyQxf64xvrjaGl/n5ugG+HOOjC33GR1cqw+c244uL5H2ja/P6Y3feH+PTWO3AJz3AxPApzXjdf4ov8/um6hLZ/+R6nPEyPGQXn52fn5/1xIXh03xeOTkh55tdmf0t6/opvgG+jxM8wPd5/cW7TPynOD+fb4kukv0pLs/7WYoLxB+Ka/P+lOYKeX4d3rXhxeXO8HH256oMQPynjmjd8NEJWX9zfn7fmodHHeDx+dUF4j/dRZnxzTWy/o7+XLsr5Hxl7PaG108Yv3mX5gU17xozCIMvN4M4YmjfIOGRNQ1q8srKsHH26aZeyzhUt3AmoVYpqSjrBnjp7hJjxTL+PAy6H4G0byBO5jjrgfpRyk7mJfVEDy579Lyu+0Y8Q4knwpIapUZlBj8fXO+DnfYNlnMQ9S6ySxqLwHYSaPbQYAmgDpIL5KVbGGy1GWSXWfxnJDApg8L3DZQB5l0SZXi2JMGTVgMhu9Q1588HJ22okn2DjElZTkhmYW01EOJ86jm4pE5DVD0HdJQaBLakLQ180EAWIjtZkrpaWHZJCHWLxkNGA6Yd1aDCS1fKfGoArKHeSg0S8pItkviSGqC3eureatDnXdKjrESA6YpBofY6NMSRQVmYr7EUVxZe8mcGQJUatJHtUsWTbptuPTJAGSBUlqjn+FkHq85IzPkaxoMKpcINoLIomSZ2DZcE0lMoL6kBKIFcaK2mBn12b01inb2DoFpV9U9PWtD5tLxg5YsagNbQzE3dW7CAUYlZ+ZLS7BpWc7BdEjwHlSuNCCx7h/k/BKEad91WVVAnBwdVoWo0eg59FBWbQeZU2ZCMQ+RkXJfCPPKIK1iJqfRlOU55KUEGGq2JQ/IGHnOVnULA52uIn2REKB2G7x7l6DRvKa/8VTUIlMLUKVSWJAhO2hlpy/pPKrE6tuOGZ2JSKTrg81mcVcFOk4YZ8Tgt7NKCJ+tfxe3WG9pXzx39hz+/bMf5sfWX4GICvLB6oSE+jt7ZPn5p7USqLJKM8LjhaYWkhfWc9hNdjzE/+iejoOSX1tQIiP0Sr+3ECys6K+5npvygf5YM+E7iy1pf0NoZxdI+PmJrrdDOgrUSFzxbT0R+K5TfzL0E8JE/f9lPel4Rc5Lu/wke5A3t3Bke1I3zJB5tf9DfOmspROTDNKq2w/NFPBMqiq8Zn8/8U/kN8dQ/I/Jt5i2UuKhFHl+Kb4BnSs7wBfBygodWJe2c2v5EwLOq3fYf8az2s/MNiD/xH8SzTqv5J66H6QHzf9QbrP7ei0cmc/fwrDNueOTPcPK+8/OV//n+Zw94polv6fAuHvl5/Ro+YXwlzrd5yK+P5VPLX5ivWXlo+bEAnvGt5V98Pp30JCyhA53EmH6AMonGi+oTyI9hCJBD/TPvvx8Ec6ivIuBZ/l3127Zhh/oQ18MaaKv+5JNI07f4fFZqr/rZjy7LoT7H/QlEv6n+X96X5QurLyrg2aRW65eC/sP4ROsjGJ2FkUCOmrCgVyPVV1rfZdS3rLOt9WNFvcTwWp8W5HM2WZSE/FB5ZzFjd7TxXmcZo4FbfZ1Zp6auNwlY/r01c+8aBEzwWZMDCCJQxrL+F1SEcczGjho10K0NXIOKIKeHSpsWwXscwAbe5tixsMKTd8CgUDpRfmaw9NhO/gNIRT3rk5YZNLQ0mwS+JBTHlWYbNcigLgOdVFkXD9qvhQ4xzZugXvJn7oeCsfAl9VHAbBHNU4KF0PzSNdPbONb2g/8gvE9YUVQr7Z/0CXH6zC+0GM3AwCPwBm/Burjns3EECBGlcjbqVaZE5hM6JrWRCsyReG9IlmstNlk6GQtBc7TwbmoaZL0ZNFpuyVLOWYTw4RnO84T/h2UAeMdt+xbrjFGof1vPdnkJdnI2J/VowJjMJrF5MWBLKkOF3xkUNrrNeCXGJhTMIA6ddmfAaKMJdrqEt85bQyY7Gd22jMR0GzjsG4Rl1lu5Gm7LzD1TuVeXdouFCOvfKrmC8/GJR4l4N1K4oMlLhWezXnYZzqN7d36VwW65zK5xcmnFZi5AromOPa0pA1wZxiP2DQLeAOye9nXsQifo1j4+2TcoeAdF/ZdVkiEt4+dCfemmOzeDPIrXfSLDUs+uZDHiw1K7RXqrb1HGGk9sixbp3TztFVQMhdpdIztasbTSYpSlhoKxWbecfYCH/a+J1oZlVOIbPtBaL2MuLHKCx1Zio730jKO8kun5ZpRtyjWs95vRoQu/tZlQ2maeQRKqQqUy1ktPWNpmfs8m4fnmSG/BJuQUaybRW92gOa26YL1WvDKjxEpnJdhaS/yWc0B+iPzmXxidkw1faB4I6G8x0fuXYWmNeEqIfim0O+1d+KXOrrQw3/LoXV3O8XgdItI7UX7J3FQ1LhU5Z4edp7PbUH5RNlQke7yiyanZI5V0mrk8lnN9dME+dlCd9rxWPXMCLwucrh1EKNcNftzZvMFZY8aPOuHumKjL/9L3bE7h+sPtKz3fnp6fr98Iuv87fgVIP7p+fSh9/h8=);lineShape=1;" vertex="1" parent="1">
                    <mxGeometry x="383.76967065026383" y="149.72386544538244" width="217.59506815391074" height="76.03618885811026" as="geometry"/>
                </mxCell>
                <mxCell id="5" value="" style="shape=stencil(rVrbbhw3DP2afSV0F/Wcpv8RIE5t1LUDx2mbv89RF5odUTNnW6Bv9iy5IsVD8pCzl/jh2+Onrw+X4L69v73+/vDX0+f3x0v85RLC08vjw9vTO/66xI+X+OHL69vDb2+v318+X///+qlL9r/+eP2zf8PfV70sNXal4H5cHxRx/p8Hv17Fn59eduJJap7Em5R8Lh5F2yTuk8TK5KOb5IOT4M7lg2ia5YtUYn6QopN8jBKI/UFqmOXv+etme1Km9kep8/1kJy6ey2dJ8/XnPG7sUL7YcGWl96+SZn+LFy3n8t6Nr9sUMj3AIwIGbyqNnZDFzyGrQTIJsa/SjAIgzTDkpM0+1CaegShJKJOCBnEMRWp90CSNnBCDhDkOWkdkjhWKpNkHBVBZHntxs0Lzksktpa0ubApRPFHI3uZy2+7tWKEMqG0KSJ5EwB0kLQpKnC7Vpj8UKjkBUDP1CwqJOF2raLZOVyUJFyQ2q+CISVqGAf8yDgBCNZEGWkkc8HGewdeQIY0oLE0BZzaC1gYf5iKgKkrKXlMJM/h0A/yxAtLFKKBSkTjApDybhKrBwAcgxNnpCsAT8CFMOoMPpbKwE4J40xzaAPyxAnrlfEIGNFi1V3tCquPJsUKWNjuNOsJM0ih5TlFUqkBuSVGXZpMiTmApqrYlhiqBYKlmyXM+dNZBnK5LiqJjsBRFRzOcCj2JsYCSJC80KbNSifyaiwD6amS8IQ3asikALAQaSW0XVSmsPcTRMrd0oMU+bkG68c5CggAUlGTlWVPHx4bJjPQ7lsf9BWN/IRfqkTrJ3g/BhI+25PWIMRoTbW5CITGFYHMTTwJxGR/X2QXvadmGQlarEBl3g8XGBzc68KmC6ejSWBTWVkUTrbNP06lGMTiTV9OoRnk6C5qb7a+0r/ll3oE8sz/aLqV0WoN8tfKJEFXIq+EKlNhCviUjX9l9LvIABCXz0fIpQC4wjMYx/+0UGCfsV7qU0jsnhGoVGCfsoFhTn91qGBbvFBhjW4cqOM36h99GqF0c2ECyJiYU/J1MNryWtvHuwhwGNFHugWG1Srt+r45mKhzU/v+RVxvkRIGNfhPmTIh0/Lq1u42E0Mll7ZeBZn7vx4YVSSbfj35vGHmkM3NqY0i53Q8jjiAsavu3J/Etzn6/UiYLyqULoBlAS7Olvec1p42md3i+h8DAYSiUb4M0HCvApBmjnckSBZBrY9IdlqPJDpsx0FvCWGaIKYDF8hiTYjATReSTnbeFJfHKgrkrz5mQM6WOfcSf41A8zQUMm272ofAxCuOsudYa+GTXrEm10nHWOzewtuUDKgI/wiQEQuNJH4QTznCvwIf4jeHvNhfUpLSwi8RH7GW9i1iyqqTLHAUj6QBcLFtofNrUldHywoTAWpOUcmBAp5k4NNr8D7ZgfF3T92zzCTt4na3y6nIES9LsbTvpOUIAnvLCVJERrGG5g1Ue46p9UWFWeZFeE1quGcBQqxibD8uyEHhkWR0WNgw8svodnC2WGvk+v9pdh27b8WOFZE+od0Yeb1951ESZTBstbbdnY69g6qhauxcMrItmu2ovmc48cVlEeDrTBrsnzNvq4PiCxki9yScKbGfvJ5VRNk/kTWOIjb6AcXbvDwrAUO0WIpkpT3L2FV5/gcNGkWW55sYS4OT+7cqSLoLiskXhezLxs7iTQsVN43f09WMaX3YTd8TVNAK5E2dV2q7gHO1M2Wa6G1vLE/Fq5mrxjPDbeu7HgxPxZscVtj5cXl5Fvl+1w1/i3cu2lkwx8x9fud8Vxx+3t/tfnp6frz8O2H9ufw2AR9dfEsSPPwE=);lineShape=1;" vertex="1" parent="1">
                    <mxGeometry x="246.77476911119402" y="156.56839060735922" width="94.18816359650332" height="30.186356555835708" as="geometry"/>
                </mxCell>
                <mxCell id="6" value="" style="shape=stencil(lVnLctw4DPyaubJI8AWes8l/pCrOemq9dspxXn+/4E5REZtST+U2ltEiCTaABnSJ774+fvzycBH/9e315Z+HH9dPb4+X+NdF5Pr8+PB6fbNfl/j+Et99fnl9+Pv15dvzp9vfXz52y/7r35fv/Q0/b7jscuog8b9uD6S5VP9/8uFm/3R93tknp2Gyj+KqP7ePrpXZvjqfmL34yT4Fl/O5vbgis31xKTL7WCf7HIYHTuxrm+3LWPFk/zHP9s0V8v6E5y3iGvGn3dfsz1Ko/6uLcbKv3jXiz4b+rNkJOW8Ql2ZC1EYdGvLY7wBodKkRgL1vXkGrC0quLLo6n7n5scljgLo4B0GLzpMVorF0ZlHLnNWKh26Fh1l2ISBAyb0ZjbUuK5BAyOpKwzNE4qWSx/t2Xkrk0FWc93gPStxadVBtd9OFUMOYo/OW+hOygto9zOFjbE2FhIO4MHvJ4iGQi2sJE4YFXCFutWsCtlpEe7alOhLEBggjiRwDdMTXLodFtoJRY/aSsatwQIKsXZ2wLFOxjCSh9DYvNag7SmPayFznmI7JBbaCZeKlEjYSQEaNOLtVihOyJW2jkm0AewXJrVqQfEFdJltSwUQWkmtkBYs4P5MvhOG3Y8BS39Q1EnBF0b7Qclji4P5GDFrecsWAjoOKx/b2/gb2nmSYpFhv7f3EoSnhDaRRKo7tvcsQmzSnmnoSndOLC0x+JZdm+8Yrm2BlM0JEtoDHXBEivbGuMGCFQrfUGTYnFwkukDvoAEFAJZdgAJ3PYIHJWGSAKghoTEUajQCwBdIZAO7ZAJmfASK5A5hbKxaqviUSCgbIy5Y8k1V1UHnvVr6lCPcQaFXogIoAVgr7lmCFLQDPAKCHDcAShgEUUnCjGbVfnCKAbmlRqwYonEu5IqBxPVwXL91hqyoC7qzQgK132jxbAdgq/KbtDIqAytNMXuJBWCepC/niiPIzAGh6AxTOVl1WYF1DZ2tGABM9PR4WLzGl1yNuAXi+pT8E2MXNZ7CCwrSkVSDUMJ7edAxL18BrrglH6Llp/ekTjvkEiWsMv+RJmohNYwh4iIZCWoqPHxnkTCOFCPaeazCgqaey1jQeKO1ARyplyV9xiLIzjVrm/WeajOoSyNb/sCZShprYaSTadRbs/kMeM43j1sIj4yxjswRsnbgs+oJx2toj1BeWCu40YNBPBddYI6wje26AMpTfMaCN7mk3+mPdvwF0PnQqo608niR5jxOJLLzXbjgkyVs+Ozs1aM8iY5dnnTA0hb1lYt18HiVg6wAsXtlVC4rVWmlja30qsE+3qekxII0NbIAyFPVZxIEMM8ZXFqIyJn672RMT3GWZkxqBWXHOikHdhxoMELAtMbKwtJQytp47Pp5NDUFxNz5MjhG15O8oPBWfi5uEic+IEt0ugolPS1weZqueTtzCMvnUO1EdUPQYXZVNDTEbGx1ZYioYDjXRVJmGOthNANm4TdClpdARY8AW3VKMkPd7nJ9npcXEj4nCZp9oQ7Im1UAVnsfzpm1menJeIHVsVBDK6Ep3kz+md6x1B+Hf6Exr+bxgDKnE/3FpjsoQQCf8gfOaflESxGmM7Xf2rJdKmBol0y8Fyye/bk/Om1H+2hOWtTLyues1wp88om/nT5qpl8au3Hk/DKj65IPwM6NGEJ50N2/s7JXu588+0d63tx+/vwd/vj493T4n7/+P34/t0e3bc3z/Hw==);lineShape=1;" vertex="1" parent="1">
                    <mxGeometry x="559.8340564779285" y="405.54878384712606" width="104.26160786729535" height="40.73272542660486" as="geometry"/>
                </mxCell>
                <mxCell id="7" value="" style="shape=stencil(lZ3ZkiNHdkS/hq+w2JfnkfQfNGNzSJsRm9bkaPl7RYgGoOCeONH1xiUuKjNju4u73x/y3/745cffv/yQwh9/fvv6jy///etPf/7yQ/63H1L69bdfvnz79c/1Tz/kf/8h/+3nr9++/P3b13/99tNf//77j3vk/qf//Ppf+xf+5y+7dstxG6Xwv3/9h3hr4///w3/8Nfyfv/72Mjy1l+HplicNj/VleL6V9n54vc3xMrzcSqfhI70Mr7caaHh7/fV2a5GG19dX7beOv15ef33cOr5qef3u8zbwYXJ+naZwm4XGp9cPH9MtJBofX58+5lvETx9l2ZRbxucJ/XV8PayE8Prx42mydPyaLVjHa7x8n3n/hXfji47v+RPjU7gVHv86v2sfRn6epOMnrk4dn3Cfr/Gv87t3Lmz0NT68jl/rAdZbuc35On6tKHj+q/EDnqfoSbI2O23HNf51fa7dTuvNxw9czz5+3hJ8fxufA67Pq/ED1puPj59737wOfn7+1++f8/0E+O7xvX5mfMH16ePXCfmp52n3Hfrd4zs/z+t6zh3vLh8/bvFTvz9uA89z2b953ireF3KelHC/Lr/vfCvxNP71/CzH8+r1/C8Zv/86beT5H1/g++7Hsjwh/D5y/5Z+y7Ce6/20fIwfB18mv85vWfcR3o/l9fvU5T/gfVRf93tNeD4v3yrreL5/m/z+ul/Qf+iv66GW+395N/71+9T1BXC+xut81Yfr+m781PH8Pac8fz/Ml+zfyuuhqT9T1/3CjvnremvhFuH512qPOp78z3b/64/xEc/zFYa8rs+WbhWfv8jzr/WD36fI85RbwvHi/LfHCf9mfHud37ZWIKy3dv+/j/EN/Yd2G6/nc+t4/rf7af9h/MDnl/XZ1nqD9dnV/2/sD3ddPz3cZ/zd+Nf56vHukb4ZL+tnjW+w3vr9dnuMT/cT4M14OX96vu/QN+PFH+jrfoHxw75PO4yvr+uhrxmB/Tjuu+8xftxvqDfj5fzp854ouBw/797UI/oN6F8t7+L1vhgRz9t5X72P8RzPrvBY8hoj4wW/DOTGGAU97hh1yY2KLu4ykDtvGTSYsxWy59dJGw2doGUw5KU7ztoK8sXtWAaT3iHruTIGv0NRx2NMdISiZQpmuPuC7wzkKF0GdPTGpr7TjPdkzLVBV+d4GdBlsAyaGCS8veO4B4MPg4zhRrT9uQwqfdbH8fwwKPhZ0/LnixpUMoh3B+5hUPkvJL3DlwHFHDsFUdWAVuuKgqoYNIxa3Y1dBpT02/e4vHTHe2pfDGZAW3SdfDGrAUVOK/CXFO0yoNTHivzlrl0GE+Zhh/6yvAcelSuWT0UNIszDCuaj/QVyZ5fBTGpAM73C/xbVgAKEFc9LRLcNYMflR0Dw0QBWa/ZTg33+FdLLpbsN4NRYBrOZAb301JT54R3KI8v50YDyGvHuhn+cODJImnmYh0xIUtd5r1ZKXWU7BDrGOmUdM0MNKPgt1c6lfv+b1wZN3dV5SBd19Q/3MUOP9JjXDwaYoJx23HNEUsOVAYXA0e6Hfo9yrw2SejPbAJZ3zep1z85ZID+XGnoCtd6/yff+haY+3+FCqf1iLaHBuCeGv/MrrUj/4iuRgTm624CSC9kOAf5KKxjvzeaB0guPbN0HA4r3VrjczIASTiv+9aVBGYwVAFfzNSgFtiJayTktA4qxVoga7SvRjuvllmXiKp583Q+yej9trw0sT7IMGn2lbn5r5c86bPGxV7kCW38HuthXZKtna8WzdVx5xnTHrdi22F9IFN1nC2kqprdWbOu+N9UbV6haoxnQX2gX80Cnxo485S8UdENXIBnNgGpeKy7MFgPRnl5hnnpkBatkK8wTRMIsmNbbQZj9BVoa0wrXy4ASt9MyyStSpD09myZClgGlqtdZLSH+MiiwH7b/ldSAklHT9/T60PQO7ugm9Gbm1PrUzgl8ziBgeLwNXl96J0LgINsGr0tjDEyh75ceakAJqW0gSbiOSdllMCSZ0zD7swy6PFLFMuSe6akG5DpsA/lKBROh0zKn47j45Gwdibfo0EhxXQCZ30GKMSOcDGRpdK72rC0qE7fTv/QXHtWpj/ll2g9dvZnOvsbs6uj2gsmcHS28HgLLv8FDoFkOO2Eyx0++5XJRUm0ZyOLbVQ02kLW03UZ+BwHQtcc1+fa4l8JMw0LI9r+k0lUxYp/VSm+FZ7rqxLU1DzTTRc+lFVFkNpBTo06sxs6i0W7lZM4ykATtrveCc7IvditAk5O4b+XXiVvRKbnS+1aWknK6B2rvDKo8UuDTO+vFXib6fMtASiLlkdN6Z6AwiYaww2Ug+6EUxHnsPLoYZJ7ppEinkrgylTQsKwytmFalyRMTtMtAYqA8MF20DGRP546JwW0g8J+G2dBdzxBgb+WTL+n9kAsXFJMGHDmfDASAu/PUtLyThmU58slnYVkO7N0n3Q+77kmrNWnVchdueeJkA+0CA7+DJKSWAVVptsHrcb+xI2wgBbwNhuKJU2xqYWc93nM9D4PMi88yJ8/a01sDeaSDJxC1vp64CDktRxYnh2VRk8xxcoU96ukduVS7DJJgzDtmTlbEIw5WbHzcBz3IIqeLloFU/CLDcHateKgB4iimAn1ixvTpMpDyWkxYPV5BmJSmYkT3ZxnoI0V0sMYw8H5AMOwK82S1TpyGHRZKloKTRU23D9el1nhJ3PMhNqqWdDqGP6NqoYyruiuEVHQWg2uKeiUVS7Qr4pTkcsX66ch6pBa8RobdnYXn68EdeFxs/H2iZtM5hB5B0XcJE3Urmm06nsgT3UoaCSt8vev78o7szbYwg+MMTRpxfXYrZzAYagW+UpaNuH5W3KvHKJZXuhVlA4bmK4iVdFvgaszQ5z+ASS1XcBhvPLLD+KLO6WF8VnbMYXzUE/1A3pq6Pg/jLYF0GN80mg2YVKhFyWoBwaTVnP2AmZodh+r3ofuo2H4PTO7pmqwNmNEuVf32cPfWrsdn3b+By/lJ7yMOxFdAOez3CW9j6MqA5/kKJ7OuH0QMdcUk8fxmq0EEBhgZ24jPqxUZTj3fqCayAkNJMMW7U3c9Pur5FjF1v8YH/X3E5QTdvxHnN01FbEXcL0/36zkecXPd71O6j7b7JWxHJP9t90vCXCy2OPsg4f5KVQP1hPfRco+a0pSp3Lr+t/lL5A8kw79l3F/79dR/QyRl1NxhwXzpXu7CrsLzLVkYxkWZFZlKOqliXWkFppIRq/g80eofjcHgXbMkjWHRBrdi8vGGIEsOHcmp0dhw/X4AXI8vmqnqeP5slLZS1+k8iVn3S8f9siJeOQ8Hz2/SdDuTEVe8KyjzeaejvRsv58OG/9MHChqg7v9Cf8FwjU/4/zsDWaKRCdpT4dbPj/ZmvNQXdt4CCSDN8hx0hg4N8dYipDOxa6V3jacv2nXJRRZvsGLe2qRUkGwaYseGz9P0SNzJLyQwyhJdhxILIOgVPHHPV8Vu7fwgEq7lCE0Pp/HNeMkOJiboWYpjX1Lkw909wg85WoQaa0EhFcZjawiTuACRTaCgYRU/6ZH+pLC9GS/7Nw2cX8/0T8xZJN3vB0GAqISp7ZQSZ0VD8uUkU9Ix6pGeM+aYos7XcvLpe0YNMTZhH34/XBDwaT1YSJU71nIsdb2CJoqpggIdM+f3gxKuS8TvY/ScFVTSHenjC+a5g5YbSsUYxt53B934PP11P5aBPl/Q+6UGXG/BCNocU0VN6dTMPpmez7Vg7SNqiF0bgtltf9WO/kC0lPLAmDzq92zh8L6fw2QkFWRoCStoyUAiGSufyQjmDARIhryp+H2SEcbbYbzsl024xvtF6n9tIBY1acmmTcwZJQ3hN94c7y+Z3x4xhrcUaE+cc9EUxwZjUQ7FCNGM28h6n/aC50/WlOZOwuPvi3/S2V/Ner71hpg+85c6+xvZwG0D/f+i92kfiFIpmqLskzlN6s+PgOdh0ftogyTR/1TyNHNwi6ZoRj4Ieoh/Ndj/NGLPqMxmMoJ8xRqYpaBHOwjmSIC6i7Ycjxi6mJ9fwGNjHJ5f/MkxER9ddb4OLO6mYIUZcX02I/UlpoUYnSdhzrTb72dE2A57/syo4qvxBCUy9ilLL8ZgtLB8Srooxj5z1i4bu4g1mi6kADLmUGLXS2myk7tj8K4GtAu2WzbVgKZ5n9NJDShxtJVnjKSCvPtp1LZy4ntLaDhZ+2pFaheEJzKwettkpYtdsLK/gKe7Zbwnh3sr2lFWPPP5iikMzc4KhVcMWvJYNiHWDAiGUF0wYTAhtlwQ9RMltR44lw8G5DWuoMRJ7nQIVIN2bI4ICRkZjG2zUMjASb0PNtC1gVUbN/UGXrqZeNOTDXRtMOwdWG10+eq6pxl53ePFOxBkySEk24AwKtXW0sSTb/m7w14a6apDXfjJmkMbJmR/gQ6BEUx8Y2IQO5JRDA9/IRvfezLVsxj1mT/rMOXCORkdWC+2KFV3hnN0mXi2PM0LHQp6pH4hyYAv7UoXHff0Bl0aZ52w3WOac9IYpTntHbgIOX1Psz7O9PuhsMsXtKx+8MimJU1nYophNBEUrhrMaLThA+fEgNTrQyMRM2ogvBcLg/I1cmNZiQ3K99CNZjppLnewCzctuTMOgPakgJfB2frNm5HwkAueO7qQfAHXYHe0YAkGuuNm1ox6Z3Gm7fyLQWEaTNHTuyeeOGN5dQY+bh6ZZEUPDKmiS6N1JOo7ta1VJkcUU4o8sLEtU9IiVj6naQtvp44+q4nz1n4ykImrlYkFRjGsXG2cps9bWQNuVoWgFhbwdppk6UxtqxpaFq54TWtQsKltLAUgOYoS+X6omsTMk0EMVQ+yPFAmeRtIGbHxnjaoTa5Mz6t6KW5lcX5pJc8l1GWZlhpbEfZhpuVS3NkaNshS7B4nFrAC8o60YdmiiYWN9jFjBniLWgL3qcH99mwVEsCBFla0JJQysx6No7urJnzHOY+MQDH7UhTUQWTefdaTLx0phgK1OzSmcH9pa0nSnjZ5wNhPHCxF13a+gYLC7WJjLly46A5CxZWdexZ0UkUE+JjGI6u4vDdpy5hqKApkCsExo7jrcMRU4hjINKNjYppO01g0MutxVFt84UTcUlRcwDvuQqcI1QyW36xZ7BOzSjy+A1PNqNiDRY0s2Oj8RaO6e6yRNwz5yArBIzhSFb9/MNgCMj/6VBJ2xauwD/2eBatc3Zgu5cT0En+b24r0riUHltVdIYsgozNWDbs5eRmr7N2u2Yx3YLeQh5HsPTuTj1CVu8ivz0OXeA8aqHIbmGZ0XEa1NkOCM3u3mYorq4I3K2snbgNgEgFcNdzaiuMT4+swcj3eAStu6vb7ND5rQHsYH81vxNxiGc78wPEmh3kYX6yPFo83GBSP34K4n3n+rbuhzBia3xXMiKPC6zlbEoX3Vzbvj9u8ZZPMYxGONFSUhtuGOXOInaBkzO+McU0y/6Ewkylr2b9g2njDbCUtwMwkYzoWRunZeXhg3pgbWrGqE03mtKIjHc2n5DZ+sZkMEt7v0booVvT3thyEvi9q/xsMilE4yyeX/dswvxdNbujYsUHKcJ2/f1Kph4Gouy01ocoNCIgwmPYmstACitbYMWBdPRowN0YGthpSODK7MJqw7poVKjzGoFirQzPLZSBefaxY8Nof8XWbrY2BdROFaERG900TEDiIS2qJ78C4No3cJ/72zXgpXaXMmRU9pvc5ge8rJZnEaLep11g6tbORYnc+pIftGjtU3nQbZ273Y+LSeWBO0qRACysCmLBnySxqo25c4XN0GLthHNoViRtaA2dTFDqwsTIU12rYXAumzi3srI01ovVUrAPPrKHAtY3Gx3ZU2q4rIqO+63nSMqtoK5ussZ50v2hnxu3ApBKxAjl+X8mYt4mXRle0f2dFBhM46swW6Ro294Q1MxNM6IzG7OpGdJaFdqnTinkR603SuaTdtEbYG1541n6uH9vVVR1PfrGPnxzHq9PRWSDUgKSDFTe6ogtHxLinG5o9oYtiitlrPCZaNS01DvVQPa8Gs32nshUG67LtNK/B5ZGCb3DkUZmDbzjBJ/DprStt3dUoPR5N6HPwJojZYB2No41i2WXu6rfl85oa0D0Wu6b4R8eDOrogN3uiyTLGywCJYsmgKQNrM8lynGOi8/TMcX8woNvb3ZWN9mIBFxXZD9zgyqR1Z2A6UdOGyJMbfGfb0pM7ypdkPej4DCuWqzpQMIpr5ifMVlUj4U2WdK3NOgskBI5Ub/7B0nRb+su6IyD214kqTJRuFhvMQw7f5FC3AcvNKbCQuScbyuuPRO7a1LTwZPbVcCRiPhXWtD8P1+6HEeYmdxS/ANqyStE63PWlD5e6yWTOxNXKR5D7YcfhS1vcMiMir8bQi31ydmZYQnwZYCQelHg5D2gZY1pPVg/bp5C35jggQsWbmVj1mHZUDnY/LyCk3I55GtVjg1QPBuacYEbhCqR6UI5u5lMirCNpUDjiCTcrWaztpbNytDZsYAbNtF6AuyB7aOjzOQhpMh5vOC0Nb9iA8JqsnkA7ANqMENMCq1+bHFTlhm8XnQUyp++yTtxWc2D8spzepbHuf9FbtBwyckVTSCVwirZojiGPE/ZX9nTm3mfTZDcz68xdPFJk0Hax8upE1aBptPDEskez6Ol9BhZqBbeiVzmtJXViJv+TFPExOc0GqpXEVVZva3EQMJ6m1vDspvz2uHe9eT5mBNCWAiNzoy6NOE8S+CmpAXbaMImfyFypGQ2UN7n3mRuMk8i+CnEObs3hynODO8RFrURE5ko9+5B9MDh8VlU+GwwhjVY8YhDcNALxfml+JNVPHVxuugSp0lEZDU05T16lSnpPPsisJUQ8EpMkcxIPDJpoEoCTWQ9Rj/s4mbkRrXfBxBDffe/9lXgtqSwh00qn148PrnTUUtheS3yQaXeEgbncC8DzYG8mmjjkcccpHPm4p8WVjtwa/PMGxiiLh6ZEWWPRLRnGt6jU8bcqMnuVjrbHzjPFwHGJL/ZiNAmGH02HAx4paIr/qnxPFwUIpWOjse4eGf+F4T4ff9bhXiU7iXK2nv1WNTh+JX0kVlucJo+5vXv2vZvFD9jQx0QyCguGTRNnOCjaTWs+XrmIe9FSrh8pma/z0A7sk6zwtHZsWidKxo07fe9jxiiZJwNJIhwidpOlOeUE/JEOWQeXV568p02cbGdODp36xOCw47Lllwp7xjZxozHvzg360SCpwSERIq70mCc2lqr9BCbfWn5puyuHZmlWEjn4Gspv4RTwNB3Pyd1od4LWOP6U/fF+VfOApRl6iz57971LYxd7JNSitv47B52CYW1T56FebnJuM3N782L1OEZGD+vJOBkaPUyRdCcuDkUXq6FQ5qQbKmK7XMwu8cIRwiiiCa5kPPmaC3IxcLBZa4iDqFizXlr7sxLFwZqpHJTU6lXHdSJ9PrFqH1cr9ZsZF7Us8pd2qdb2A91xJV3saZT3tPbmOwQhfU/r0fRsWHhtYHfcPHR5cbWfgJ5AGhdiJVT82mBwL/szdCHYlXXoBCJAsC1UQwSJoBM3JuYqozdQH+jNRFNGHBxabqptUQME2pQLrUlkPZgbOh4AxmsDg90PVvvfHSnsL5BCS7Tk5mA97BjM/Wmc91bfZDAk1QQkd4EQIWcSVw5uyjJMsJSFSrr1EClYeuj2+wU9paa7f2SkVljDiMFnajPvMzEQxFBL3HSqKbNxcCxW9Xv2idvSbqk+kOpk0JpD1NP0nu1MZW4GkeUW1Hb2dqb0W8+75c2gLKBFeQUzyk3j/54xoWzrrTO8pCmYsHMWxjA7PWAW0yCvG2KNkG+Zr8blT4NMN6ZGda3Htorpka5hfMtMJbdMRERdSYegB3Q/jHleB6OyjInH678rBaOyOpxB+ivHgabsWQNrbFiP2sGdl9VxL1znHSbAlFm7UYPMwk0uh6n4jAMFRqrI+XifCpOW446hzOTMTQeHtSw/KE9aGrgfKCqaja+Yvh+6flJGZOW0Bj0HbR1L9jPxcF6VsuD5p9bwI0tOTquXN1Y6tJ68leXvLgRmsMJ50fALM0sXajFMOdSabuQGIkFzMk9SwDsD8fgYgBCDRTK44WMwEgNTEqJ5BKcQQIX1WFA96e9zh5KY9PcPlIqs2Rt2gKKV0wpW06IJCR7GW8uCwuwIg8AXDvLMYyqnwFb19BCetWu2gkljbvv08XTB7Hqqjk+wwbylT8FKScqajOB0YTKwGMurJYv7GZaeunr0fGClYQVlDCC3loWOJwc0m6Z2Qgc6W/WMdQO31of+Pl0AW0tEtU0owLjSKqEL70oLBcdfaK3g+AstFxx/oRVD46+0aHD8hdYNnZ9XWjo4/kKrh8ZfaQEh5/NCawjHX2gZ0X50rSSmM7gWU+IEh2mbJBaUNy2pxJxkaynGXaxdCythALPzATaeAmwDLSREVXfTdz2MtwwTlxK7delI3AHAIs6ECcduXeWZWtWHa4Ud5P81YuMAL+j6Z+zOsCbBFbVThqHrKmsKmDZLxftrGGGVO5gOI2w0rDV474LO2oAu4I0Vn2H6rAwdH7ZfGLw7TDtooj82TJsoMhxgJ+RNvRJnrOsOiBFdiNENhcdB8IXsaMKK7JjKddqyo6yEqi9d8BrYmIqsBkgsstaqBzWdC9A1qzJtEEZRAwQsJ9MpZSL2BmE0NUCJc3O+TyDTfCH0S/nZWS4Q/6h5Y13mE7eAnEVVPFJkvlbRmlXipqCzaJE4sZTTrNammttAzmp9mAtuoC3TbjrWSJmpegynxoC0aq28uZXo7pUlF+0BEt00158ORDs7KrfEOa3WZjqhDDiYhuPIrNQ6jdS/heD5kZIlbDFB51qhgzOSpp+cWWVkWs2rRMa9GsW4MBZlWhVxNxUgzKitpXJoUFFNAfEgrWU9AuqB61Q1015ZlHdWDXx3+wjecaqy2Pl+MBnfyrrU28CabBweSZIV7djRQry3xlKOs+r90Njfm8VaQB84NkUD5h6PPQKMbYuug/Vf2V18+cpKXmXmd5Ck45agZki0EoAnszyz8aoDc52y+rnj2IVA1tLI/NLWrHkUJs96P6LKcOKkS2McjhnTexjjRKnUhrjz9A4KeQsnjv6FnMmBQmZYRWQ9R80QPjkA7wwk4JgH39tyZrMySc3xxw2X95ZSEIxc57qhd2LjHjIeA01mFz4VjB4GEyduGFZgcvOfYaWHyUS7Yff05PbuwzoeTUYSDjv5JlO9h/fRZG9m5yeSGXAzAm0UEpjc0aeelYc/0cdF10o6mLopy01uedSrZjUO37Ub/XwbUJ7LGy1PLGTt7qE2cyTy1UwubvKdtdUd7S8QmKGVi3eg9d2uGmkS2anFiz1K50ydF/OAHd+7tShnhEW1qGkyX70Wa6/IJexqaYdT+11X3xmIKilDHdfdc5hEvqzKM1lhrngH1I7AnmKa65MlJVYUpkujofOdm2HTG573udgGYv8nR9NZYqHzNG0/VFytjkecLOGasi1v7k+a4kV/UlRcnMbKOajfm6zpPJTwq93sHA/EbKu1sGC7M1oKnnwxWJ9YhhWY9Pd+BZSe9hb26JCZYBe/QDcF+YIeoknFTm7b5lQtFuqxWP0pG/VmvH6fiDvNultuH5m4NTZfgY8vi3z4cjYi8kFr7Io8QdFh0eZr29ulG+GCCEq4O0ONjIrhrSkMHZRiTehpx6qw5YtJ6Wa8Aa2j2I626fK4UD0jaolpZ+26I7V8UbJYn/g9s4aEnTvDG0l2+dB492kuuXe+mEwammFxSV3NjfMn2JHGzJ2ZzUmzKb0gO8lQFz2jSktSnYzOLYOS5rU7Z3eSuk+d06kWpfWAjnVSFEubeKUm4xFwMcLUSxtLI0atCrfGXseFlD1RUKOi1lbsQgzUaFX2zLBEzVa0hJGQics05kmaek1joS+TvKoDv2dQVFzlloaOomh4/liHpMoeWVBeRs0IYwkqmlQjrueg91F9hNdvxqvw4MCaTrCOhh1zfNb79EnufTdeeBYFYSzBKkZco7XWNoX1XO3588T9HrRGlgfe78E6GnaUrAp6Pq/oj/ZL0KgnV0ziBi2S54JhVdDzKvN9Ea0DIhfhoxUpGcQSDTXIWujRUKfjMF4i4V3txvtRUZUskJQMhdYYFq3aXOkQBlsjbG5JmhWAk1gaO5vSI8Mks+lBRawDmqrQXuHoz4v/v0Xn0D8XzEfk/WsIjsiwsmrNo1lRqFr/MW77YLCByLynpmnFWND/6aZRWU68QgE/nVrJSMIish7SUBZKZFio8c42xg3zG8qringfWco/8vrcvdYkoYAJfCfecxo4mgDhwPXgLfgYzRM9AGD/zQ6ghv5GtPIx906PhiNjnmMshu/A/RurBrRcgdxYP3HIuB1gMxU0FpPopvx26pCiRFPE5T1ph8/x9D23AyQXNuZAU/CW0RgPRodR0/nzZAE8Lgy+r5Nh+DjedJ1I9N+SqWQn9D+TAWUix+OGuYqYX32y/J7j8X27wvYj6gA48Ttyf51hFzb6Dy4UEjEeyebQM3wlW6uPgPH10519jidg4HKXh/4+wfyz1T0OnXiKXqic780mzMG012z6OhxvZitxsy5BnuowBTx/StByW8Dzs9j9FfB+L+awMgZghbvZxpO/2rUmFLiAOTThy9+zBnX4Ap4/NSmChue3WtuAgP5qbZoACpi/rdYjJnBVe/p+QdpZ1ILNYbwllA/ji9IiD+NNeOwwvmsB4zDeOqYdxk9NqPH4buwHhvVvWRn7fYovst4v3Hq1m7RuYFpY9fMTW2caTS1gva8P9f8DQ4SsK1k89bZSjg76qyNYAIz+xjBx8MQ6J8kYDNyKNynqKjOWLev+YmD+sPZ83EryCS394G/T+1b1TyrTyIxOUZkm2ExIiNVMLb7oeF/s8qoIOfH7GifsoEvjYC6878bQ5588v1MTpjHwA02tqMTIvayCEfMihmDTQvjI1PhNOYtqgIrM1uBxaw4ekLiW1jmQ2iRPHHldX3ThaAwDT/ZZD4B/a3O2Y136SumiIQUCnO1uipxc3srCQjkLzKNIGt0mLp95m7ODzMK0AvWJo2bY91RO2HdNkVeW0rYQaAexbKDU+oaX1KYvSpDeeeKy3sppnGgRmuc/9B+yzpwr0kSGQNaLaitsMbVDS1Gs6PBsevkw4Eab04oDuTBdy/8CZ8O2gciKNZadMlWEFaAeyCNyaqwIFbvSWCeRFaIi4s309MuBqeHKR4l5FFmL9IVBQk7iKZw1nNYburRTBzxJ663A9kAYlrxDYZbDpjpZU75D9zhhzFQWifaGdjXzTBuYrbKorFPO6oFsWwzOME60OUkf1nli5zqAA+9p4zu2dOIKKjEvs1Rd00NgBcUHZquKZTZ2f5om0VcYjep8Jte74mjs/tANpxa401RX56Rz4nQZOBsRd1y37qIs8bih9PIXCq8lE83s3OR+Dt1xvXO1bWj02QcT6Ifp0h6a8g3NH43A3sw0DfQD+XzqlTUO59I0belDg0eTcnu2l35noNqEjCqbU73KcWiJNDXM3XrgtIEsj7cpmDwPGogOXktTM21j4HH/gf71sJh87zq78NCFzF5iHppZzYsm3RhAXPWLwJt9XjX64C2njJmCKfl9kjkmn9UYtDMIiwtPU/s+sARmVed7X93MPtey/kGow4DGm8/CrQhFJWYebkUXKGUJVxffeaqJvM39mMFB00jZGgfV/mp83npK7ymZqjKexPt2VPTWhzG3J19yw1qkTqYYrAtHt2hjqbSpt+JTuuNdElrnoWFVaIurNTVI8Fm7eVjLAOsA1Q6Bg8C4iStMRup3Zww3DIIu2gM1JtsGmwfuqtF8xzGapnVjGDMbsTWTDeis428hyuTeI8uZd4IkcmejMVs7HgLNCcNsUK1GOjuCtJ8Y8e81uKKRUr6o1ouvRA5TtTrFNoClUX15HwyM+nEyiJa6Z+5sNTDyZHBZMcd1GzD/V9ACywDpW6aivNwVcn9Ks3OJ2wOVavc0V0SKUegmN+kupmw4mcNSkvlLHL0+808PA86Ul6hZtTkRxlOCzTQ3uM5TiWs7ymHgiXP6sYPXuJCgQANfS6x5l91vPby0t49jZY/s9NOJyftcNG+3Z5oNVFaG11K2lO5erfTS6UJmgM7WHG3iBkZZ2Ugwk5sLJYvxn0HOtUE3An0/wfiaX1mEK6zWDY6JJMn0lWdn5kBWJOVkWcqUNLFxcBI3dM9UA7DfXFDw1lOI7Dpkn/bSDHff6H8j0CP+2GU3DgS7bosvY50zGmLzWdO7NjAIy6E7YqzmJEYM/HaxWPZDYNS4qzcwbC1amWZMxO1c9MxjmaVoTNNlQIm+aNShwVJRG4ovebv22ZYfDfMa0diFg6PdaK704A1kcg/jUDgyHbQHAf7NeCkQDqYbmej+zp1iGyTJqo+I+njDniew6rtenwf6etdj/okHezNeqwKdVdY1auhMJ3Z0ECd+Lazv+dCGUOnu3DWjKVRmBeG0oL1tHhcFm276xnKg1tRl4ye5zeHQ8TRfVb//xnNSSKVo592mjuC5il5unN2qig5tnJWsut9b4a4WRi9n3VATTW9891XN5h3a5lVluzSmE1RrExgQTVMVk1E5aqnKVqhMRzQ5mNo5FFT93MrnSdEsdWWpqaI1xlqxKFkUfFe5y1Ix+j23USzWtpAF6M2xqdwlxJKQu80Lfs9sqAfMiCh7ogyk65iMYukHuqyUqQt3bTA6bqlMV7CmWBmDP4suC3dB8t/nepmVaUo4jRc6Pcv2+fiB96mxF9d4ggn4+I5IBx/fkO54NR7pNDa+4nno48tBzknHM7zbQEKZS+U+nrtc2frPkXN1Nj4czjcfT/6S0+M5QeTjB+a47PukfnhfHc9dXbwLROWEr8EuK97XPp79k2JNuvJpfRoc91PnVYpYUroaT/GLNz1jlKnJjcWT3JuP5/Up4IEtl8Dfx3qnkHyVPw/rTtp6iCynVS760fB5ImWeyHIn1nQohsP5rOrTGH6Z8OfA0px5P/2gnaHBAhc6NLvBV0U1VwBvRvPMOatmNE3uHmcoSWZVVeuei15YVTFU7mxjnRkjplmrtdrFFEXVUn88RIDDhuOXmfrs9OsG3ImYNrS+LhHT9M255MiFNMIJnjVNmW8RqxIXw+kmOQ5f//D7j3/+8te//PzrP//5x5/fvv7jy8f///PXb1/+/u3rv3776fGf/vjlx9+/rH/7Pw==);lineShape=1;" vertex="1" parent="1">
                    <mxGeometry x="378.7032031952024" y="211.10324508162012" width="249.18320684652733" height="198.49558266516624" as="geometry"/>
                </mxCell>
                <mxCell id="8" value="" style="shape=stencil(pZzbrt7GDYWfxrfCnA/XafoeAeLURt04cJwe3r6cGtK/tSh9ctC7ZJvUL81wyMVFct7lH37/8NNv79+l8PvXL5///v5fH3/++uFd/su7lD7++uH9l49f7b/e5R/f5R9++fzl/d++fP7j15+//f9vPy3J9V//+PzP9YR/f9OrW6xLKYX/fPtD21L/3x/++k3808dfSbxvsaD4EPE+/4T42GpD8XwSn1sNJB7O7x7D1kC+bFPk4zbgdcr+r4d83lIm+X5+/Wh/SSRf+1m+bRkWv2wlnOXHvgI38imd5ec2wBbKFs7fm+LWx7183mY8y+etw/OPfz3kK65/3tp5Pc18Aj6/zJN8DluG9clbPn9vTlvD50d5vllgJPlwXv/ccX/TNs7rmefWUL6e36eYPcN+pf3XD3nbcXx+OO9XaVuE77VfP+9X4f2KWzuvT5nbhPeJWzk/v5p9wv7GLZ2/tx4WciMfzt6qmkMC+wzbPNtPbdsA/xP23Tnkx1bge03+vD4t4HoGPV/N1gf2K+ze6ZC3EwH2Y/Jn/9Pq7jFu5NvZPltD/+DlbX3+zPN7eNgvlTeLBfsJ++od8nmr4M/D7i0P+YrBNGh86e1hv+Z5f/vYPfyNPcfz/nbzJ7A+cctn+RF3D3YjX8/ncZiHQf8g6zNsPUE+qf8cR8S8kU/y/Lp7mBv5drbn0faIcyM/z/5k9K1ifMzyfLbnvEefQ37uX3QTr+P5+dP8A+IT2a8ZEJ/Y6ZbnR/QPdf+6N/Lkzy36n8/jNPsB/9w0fpk8+dvDGx/yht9Avu/W+0a+gX32bcj7FMQDQ+OXyRfwP1PxmMlPeP+p/n/WHeFcn8egANQUBgVgO/FnBD0bIqyYNMSYArlcQ8wSg2fH/CXaEa+qgE6ub6WrwqRfmAqzprld+Iblt4IqFPJbZWtDFRD4dXeSByIhA8LdfQPtQ/b7MPbs6VrBllUUJoKVEnZbfqMQ4fQbWM1ZFRIpWG7aVIH8i8HJWFSBAGO185tUoYIHrn1/ge9UMMSX3bKSLTUXdNZHgy0ZJhMGYO0D7LSBMoG9y5YgLHSH802B4ni/Mr5Ejrg5z9rRvA04qSPruNMjXHgNwnYGhSRZXJ4PdtqwUHe+lVZpHMnnW2cMns/QjcaThnjZFHSn2+7arhW6c2R1z2GuFcZFyMJ9sONSVIFyUoM4SVapYFA3hTlVgaL6dGmvwYYMGzdd3m5/Idy/nicHKO47c6cgmY4pVLBW+8TofoGgvynoPoTdF14rOGu1rWzgNUxBjqgZy6BVakoHmjk+KAj8WfifNq7rAbIzWAiQuThtGQwdoAVF5BsSxgdzjBc5G330UFLNksLCvzAk62TOdzrYau450i9MdZW9sC3NHRIeColtaSqy73bKH35BqIi5n5BbhfN5aB1B4vro8yo1ButrWYXYz8geLcAmdE3cMdqdgvDXdWJ+vsL42fgM3xBBsqz1vA/1OOV3ClEUMqb06wAJ5xcx7JqCRKBqSTSZd3es60BUuZCF0KJME66M52wapSKEW1DkvEolc3xoukrl4QA1hdIlstdoe6HnUGBubrrkPpv98isFYeM7ViteUORQaEjfrAh0RjPZ3D2dh6rO2NKoRB9dlWHPmVepuBJBYr/kakw5Im41BS2KBEzLFnQ470OavEpFab10OJ47NCM8qSlEOkAO/rwS5jsFidOpISewENlUBfzovEeDQ6Eyl5OV3Fv0Gu10Uuiw6p300UnPQ3oIu0nR/aoAkvdO6gRWiY7MO2nYXTUuslaz/q4KVBJ9AedDIe416jsFIa1T2HmIOwXJduNDFI3KnMSxe9s7BeG5Y99zljsFOXGmEMm8gzKnqzLNCvrRFRksU6hBFRAZB1f8LtgcsBI/qcZnPHGWj0h5JR5cyp2CrlJCcGIK3SkEML6V7bqOBcIappDlG8IOV+4UlGrBEt1K2KWmgS5gDHWUA1soTF7ep+++/I5xkOS7Y66xKjaC0xGxDpfyPTAgTTegIrCyBFLOckVC3fLHIvgW4//ISpoWJmSi9nQUzBmGO2UF32dVLAVebB38hKWOQWAhHoBVoRW8gzzGygPPz09YPWhD2dK0Y75rebe/Cd+nJeV7I66PZWhOHlumnH1GLDFW1yMT0WNZ8iTPDwhCStfnB+RsimPcj6aEa/moNcmALjq7lDYgCZuPMPdGHr7X4Ppw8tRCFNTeAu5v6pqzPMhXBVAP8mnfzu+UD3sS933ycep5eZDvWjN/kK+aZgb0/yafnD1Qi0PVVDxguWahHn0+5REGeqZ+L6HRJa/2T7TUkp8iT0gxuh5MZk9i1RJbwBa0tf76/kRvrv1V+6F4bfKCQwO3vNS9ePBG/qE8re9D6bfJd7WHxO/j5AmzXr0PxdOr76WWhav1fDqP7rw/nEe1hwd5Z2/YAnhhz8RzXZ0XbLm4Oo8QT6/OO7ExV/6E8NiVv6L8+cofPp1Hd97/pH9G+Qv/Ty1QV/GF5K/iF8pfxEeUv4i/KH8R30n+Cj+g/AU+If+88I/zz9TiNjT/CkjlLfzm4hG1vBeP97BlvyutwPG0Bo8/yR+ujmOVp+qz4fOi60O1AsP/xeFzeL7lF8Xhf2r2qJq/R/S3lh8pN4X5Zo/K4ieMj/1IF1/yhK8sf5T8NGF+YfmpzhAwn+B4rIz2MJL6z4zc98hak+PKzig+f8cWj6o96eWph6Tp84mgHb6Whfns4n/O68PtHWMoxVwx/xquKFqZv5pqPw3P7zhqHy8+ivDwaoLQ+SsaYVokpU5UEX6YwTXNMT8e9HzxSMbqljl/b2RAOV2PXYzooVfPcVQFLG5G57ISVx2i5vwxI6hfNQFHLTeuOgzhcQu3RESFEfGha8n1yi9kR/uQtOMncu/v6s12NQEsnyYN9bGzaSQttUQmi6cDWwbvCN3MvP/zGwUsxWft0ljxm39BztuaWuJKohhfSthkv4qbRRWo19EUuqvCYTtBVms1hYdV0qJawSx0+knDwrX7ooOkqbLfK66SWJ9+QYDgGjcA5LIUXAmYphlX36H8QuceiqLzR2v+kSvrWtEd7JeKHiBz91R+WA0LQsdzfmkKUvfOEROEV//noZAwAzEF6ZvNmRt4mrbn58KusrmaxUM/TnOgsHEJuGkT0uplIYXuRksHN7R17U9b/Tj8C+W8rIWHf9bYhVSCErvKruXT1bXECtLhsPqiyM0MjXGFBxCny15WbxdZ69D0qzJ/4tsvV38a99jJ5IallFTRXW1/olDZ+KZ2SFfuhZ8O464slNsvpWWuRUZkU1Ho6nXkFlIJWY3rqKYgnq8dJ+RWwXeEEvMVgvqZzrWw6RoQesLi1vpq3zjLHyFQoPMEwNo5Kcd3RolH/DgU+A6H1dYqQ5WR3ffQ5q7x4GeGG8PkGvVrduRQqNyF5EikwbMevv9y5b20Skf8OBQe8jjXHbkyR467OroR2Fc6Jn41MjHY0HHJxB/teh0mkz2zqC2tHjeypaxszHxoL05arn4Bzdvc0o2f4CuFixEaZJSmG7GsTBENxaEL4FCPR1dfaQrUKGgKOlLWsM3bjougk8mTGMPR5s/TVcJTvCDUHVEnjQwLQnEnjB9EpUDdh9u4jlxUb+qMX/301wpFyavlPIktdcTGyz1f071uKGFyAtGaO3ETiY01z+h+gQBTc42CkyksP5P5JnRfaxQFQI8a7iqGye54za66ncC7isrF3Cf5b8P/Mtcz+XaI7DKCOTEsrhlip0Aobk0p+4FdnoOWZPE1h3OtUNwo6kQiLrl+uIWveVpcV4lHs2NXpmIlFVQSdiXzleeQgquZTB6Mi8mFdmbuoruZZCEcyjmc7TUepHMT9RWf77oMVxCFbe4uJBY8nt29T8Ecq7np4YIMc3WDt4xLqpKIMyOlUV3Xb3q4qUyq7DNhW0pR1ufVFX998t31BJwqufGL15jv9TF2VZOJCCZplr7qTLCeSQcSB7ctx52seZMwUBkwuptq6sPzpYvCUh5qx486bDIytj0GlyElnA8Ibj2ZBQyK/NfNRfC9QXmbzld0BIWPndc/aDbVK7YhBK0zPN4cpVTB081Unlp4eB8ZBX26WUuGtVvDkRQv/3QzWHD8DtuP+Kt1sxnetCZFxsa0XNAZtnUzG+6XnPfasLoQ1F/VirAj6NxH5bYCV7WtTze/SUa3bt7Dm7tkPdfNfuiv5HtLe7oJUJhdnpOPWsUvfF5csTNz1pG0ipc7ZlrJEf4FJ7KSxtN18yS+v1DlmduU3E1liW8KzXq+EheDHW+SMt8/pLRJ4psbs7Imq06L7yOcYORKmZsoXfNteHOs+Ld1syvKS1dl5JvH3AztupkWb4IVfLvGvPCmOE0OkeF34nxtb3G3K+AFEUXBCd+k46594guN3dPbw8pLMtUeXqbo04msLmrHDekUVyFuaMVFrb6i0ymukvQgLsWFp5eRFJA/1fVZ80JWBai8Ta7rm43g/70zW8XtP17Xc//y8dOnb7d7v/13vc7b/vTtKvD8438B);lineShape=1;" vertex="1" parent="1">
                    <mxGeometry x="209.3758766314097" y="138.9684201650764" width="181.8757744531007" height="266.24463302022957" as="geometry"/>
                </mxCell>
                <mxCell id="9" value="" style="shape=stencil(lVnbclMxDPyavGp8vzwX+A9maGmG0jKl3P6eNRmnR/LJhr6FIsW2pF2tlEO8+X7/8dvtIbjvL89PX25/HT+93B/iu0MIx8f72+fjCz4d4vtDvLl7er79/Pz04/HT6d/fPg7L8enr08/xDb9PftlL9cMruD+nvzgp9d8fPpzsH46PW/sooSp7L7kT+yKpK/sgOV62L15iUvZRcib2TVxU9llcuGxf8f1O2RdxhdhH6fr+dX7Bvn2RouPZpJJ41ibJxNPNiO06NC9eB8gHiY04RKlBOyTJiTgUmwJfpLETurisHTq9UvfSdNJQFY5URU9STBUlaSTNvc4qODtUqeyELl5fKbp55q6Dd06crqSISJNSxRFVhykirp46OIOFLp09ok6sTIcUxbFEZFtMqUhgb/D2DYmnugEuReMzSGIOwb4hZ8oAFY/WCMpNMjmh4gQNUZBOIQ6lStLFVJJUQgIFiDQOVQpxyFWCrqXqJDIaDhYQeFUnDgk8ox9dsyTCAilJ0KWBQFfClMmJ14+uqFaSuLhSJXiBnAB8RV0a4LZCAAQIh6Yd8mxfuw4ga2euBIiSKI3uYRyaREIb4K1u3gBa4A6m4QKDjr0hSdK11IN4fkLTme5RPMEDWmzUYQU/syaKKJkm1zmmQdZJs3EvFKJIXDAOXQJpEOOEbh0SC2u2xQcH1iBGS0vWoZETfJW2XIlh2i942DSlfXLdO4HkAcXaliewqNquO2JE7EFyS9YYetzsZht7T+AJsafR2c8R2CeMmaCNPSu7ajsJ7Jm69YvwgUMiCYDysmDmDghRXU5gV0KO45veDDD35QQWVFSdX5DDsoawdmcdKKlCtHjrwOoOiQ7LlVhhD0G7gJkhBxq76VK9hk3o/p0jCPzLZPX/5Jdgb3SFwFBJy30YQy56+AoFv92+GXveEyBVzXuvNB076Y2uxvTLgjS0TSbBrNwZfZl0zby81/PRdpFTnY88EyJb6cIwEKzAgzhis+3AgKYWyC8mLDyYQj8ZAo+Sl18UoadXCsuV6hXQtGX+r7TqIFIN20FoR6Zql+kCUp7xafLSjTI/69x9h2qVCMaRTDKN6cKMhRh4GJ+O+UW/YYxURJljQgrr0MZGqmoFHsZCNkfWRYuMwZNcqRY7qY7RlhQfKqfqak3nPnRptHXmhEh1M6o/aQobCwCSh5YsgK6sGOBgwjqWGAQPuJKZVKOjLNNA2xoPYxPDN2Kmll5Bu++QZky22yQCoOonqWz2VWwWRvEZEoAu6yRxZQkruLCwtaebN95s9TJJHKrfRAn6gZ2QnV0ANL4wyFIMj1EqTgveCqe9ZuVFnjy4bx9su4qTBi8Rd9FgC7OfXtKQZhF+3oxfmgezxqabeuOS/bpoZ99f5l791Z7V6FDZ9j6BjTrO6n5H1Qh4wTQRR9cQIB6zmHdzVbJv39f7M7mMejOLfEdXyKjnYOPv2fdXK+/cZL59+77aR5Kv7O0s62gDfPMPNVft8eH1V6G748PD6Uel7f/bX5Hwp9MvUPH9Xw==);lineShape=1;" vertex="1" parent="1">
                    <mxGeometry x="389.51561906154984" y="217.93249521745463" width="8.153657623515377" height="147.37275850572246" as="geometry"/>
                </mxCell>
                <mxCell id="10" value="" style="shape=stencil(nVpbchw3DDzN/rLAN/ntOPdwleVIFcVyycrr9gEjc7Ro7jSj/K1GwAzeaIC8xA/f7z99u7sE+f7y/PTr3Z8Pn1/uL/GnSwgPX+/vnh9e9NclfrzED1+enu9+eX76/evn17+/fRqU49dvT3+MN/z1yuddKYMpyN8/HnTn/b9Pfn6lf3z4aumToQ9hvuGMvlr67EQofbf01eX+DvooLkVK3yx9dIXLY+WPxXVuH2vPJC40Sh8sfXSVvj9beVJ1nuqbvaHP4nJm9Mn6N0fXKH3Mlr5u/Bus/Lm7TuX31r8lTIud0Vv5S3Kdyg/ylOYi9Ve1/qoab8RfwVUbDzU4T+yj3hdLH50n+h7aHfRpeuQmfXEZ5MmuEfmby9HSV5dYvotrYCAtKMyg0SXrgSY8w4pL1kQtTKfcZuizghwMySUi0nCaVboV54lR1arRKt2qa4l4WTCsW59a3WZQr1qRuhqa1MXYMFB7cIGYVetOtJnT1TNE6dSct6HU0yw2Nxm0knjQIdPcyW2G2sFQXGDBHTG6O6/WmuwJrFTnk5sMmo0iyMDqtaZLyMjARBrRXxcG4mkNZvRDc0JKqgZzW3T48c3bDG2G2rXSRCSNzbQwZPKFvrRZZfCkzGgwJ9vX1NOsL2gwe1A6u0xSVBmg0+qTQhyn0Q+tRLUSZiWt3dZxw9CkCAyJlzIjzKzFic3plilaUAYslWE2pNsMdXanq3LP6pIyFOu4WnhoNMy4kYOcIQAE6LQlKgNgmFLnK84Yki1kZWNW7aJWB0UxnX8B2m4RHhptoroDV7UZLKcMNvhyoUBjMCzIkLXdwQDQU8EWy+k2u/KBbbWJkT49GKxIqez8ANBBu17mZoW2mzg4GcFn/aCNOPIvQFOMHJCNfLAZpxOM5xnXgUG44ypCOEWBgZm1LkNbpqB7dAP4wsYP1UUbrUH9sKlLViTfJkY7YxDrB59dZTpoF7XlXpFsZI4rEygcDJtYKlgEGh3FlB6MpCKy9NFAs+/nOLofBnmj96wQK71NT09H+SGPAD3DMUoPgc1HW7UPQAAdzVkMlenPN3ph9ln8taUH+whF6G9Y9kpfZv+K3V/tybNSIGc44FF6W68Dt2fFTh6mAU4zDGopnSQHAixAz8Y8pU/4frYKGsMHlOrp8FP0hfRsFTTiH3Zlu/ytSB9Zf8041nqO4pf3ex6fi/zCseNiH+GtsiCw0/xi+hYcH4Wupkb8oPwbsNzw/Wz1uMa/cP++n75g/afy1wk03voLW/0OIGHzXRvYBlgDtvGB91TFGVCBMsc2DVPY83FcGXB/vdUBmpJmGUUeDed3BUNsY9Y7tqVQZyKdMQTLoIAuskLaZ14dDIFjzI5rEQWlbCuqDDB+RL60UAbwgwLrwnWA4jUWVqy79lncDoY85+0zBmg3On7Q/texH+uAQxOo48CfNyuFPo14PaQRK3kRrBljDiTBdIOjbGBpxzJQtK9xTwBO03GZNubFEzqQV+46QKY68tP5egm/GiZYOg1w2EIkuscfObfsOSj66oim6lFvTysTfOEw9H9cjLQ4V1anDcU6rpUdYl43WmUzstgv9A2Gz3MjcLXWFr6Vg2jVJ8LMmhaRNm00YtsdjZV9IUyYebWwpeOyx/AeLYDvX2ESGfHLVsINS9lIKZJxY4e8MLCMG1tq6NTC4dhYhJflE0SmsWpftGaO0JyH8jrqAmEYZ4MLQySOGAcSEEyNijSOPDwysN2LdhAoG2NXQkQaxzYQfWVu628zxLm1u9qcJ3a4pTkPfki0bMQ0+8dVUtPDLZkb4KtVOz2FLXNyPApTpxhLQR5s/zVFmA6+405YUySzc8+CSmuKMJF8xPMFLd8cDEwBDgZPd8LL7nI0FHqWjPR855zQppqxDHtHtFAtFPIFjOzKpwePgV0jDTuZvewKNLCBWxb7CF0wrEisbOSB+bkkusATPKspgdpfEC/kTgd6We6CFHpoITfumhSqLxTTLHSyEjziSJVCMMHDLy19DL0IHmVt7vos79/cJVryd3NXSTC/Nnehlvdv7lot8m/ucgnCx81dMUFctLmLtrzf8/MiWe66tU384L6s0XoiuE/3lQIWmYjpip6N5R673lh2vOfu1JYekO9WnvQufT2i0o09/RIPbd4VOqPPSM/i4X/cfdzQ64+3i5ZfHh4fX+9pXv8fL2bqo9dLnfHjPw==);lineShape=1;" vertex="1" parent="1">
                    <mxGeometry x="397.44384440516933" y="156.2166570993786" width="167.09137042240684" height="63.391943491275434" as="geometry"/>
                </mxCell>
                <mxCell id="11" value="" style="shape=stencil(rVjLbhsxDPwaXwlRb53T9D8CxKmNunbguK+/L7cLbUxuNIsCvTkbzoriDKnR7sLD2+Hpdb/z7u12vXzd/zw+3w678Gnn/fF82F+PN/m1C4+78PByue6/XC/fz8/z369PU+T069vlx/SGXzOOqdQJ5N3v+UGi2P4++DyHn47nu3BPvqlwjlTTOD7Y18uCKD4Ts46PxGEcX6gWHZ8o1XE8O3IGUMmBhNhT1RkFplQAIJNzGhApOQBotkahkEMcRPJJAaLra34MaBSCBgRKEbCWyHkNkEIDQGTyUcvIUwM8TO8zuqsUAQ8pUtGbzgGWNYuyNXG5UgDEyb+TlkYJxCClkrpyFkChkMeAyuQ0D9VRASnVTEFXqQYKYNNNtJk1IFLzAJA6TQsgUWYAaKuU5BUYkAwg9yEyAhSzh9LXHAGa7rjayAG1TgCdktSNQZXYOdvUTYjAm2haG22zrtUASudyWCaTUutdOySCLQDN4onqFaBhAK8AAUzvVldVqr1FRoCqO6iJmFBZqxVTi1gbtXfknTYK4mGVkqgPMr3atOi7oqZuXZx3HYTG91R1A5AexYC0WsHhljPiE8DGCtU0tcx7xLRIzRDnKKJj9IMe9ZQ3ljBjQMwMbuqq3Y+ob6MhykrfGVNtziB5kjd6VAPu6vC/ECKeVVIFTRo5hYIFoKabzjkDKBQRwK1SilB/Ja4ADI2iuIGoua44JfEb2cwBDweHOJqsFV4qHODimYpOacOgiCtj45kKrJI41ab3ICaLgUERZ+n1HlKDJmuy85qHlPvsGbpjfaZI3RIy7IsdWQCh++WRw8/Ginpi1A+9hks890vF4I5ijqAkkwwJw5IQpQbIfPdBusSL0QXxvt8ulniGFXXWU/plIAzizXE1UQLfb1wx49vJas6z28jHXGYqtG6uk/9+I0Y948jrtwdo6V1feykmnL1Sex3uoBScvazK3oHSuE/lu3B0xJIvJhw5VKZoDpreyoPwnEwhEU3/+OFiM1x+vH8jeTmeTvMnlvv/228q8mj+HhMe/wA=);lineShape=1;" vertex="1" parent="1">
                    <mxGeometry x="428.37594170090415" y="175.38022326161513" width="100.71601470697071" height="8.894035557907122" as="geometry"/>
                </mxCell>
                <mxCell id="12" value="" style="shape=stencil(lVdJchsxDHzNXFHcCZ4d5x+ushypolguWc7y+4BROB5AmZ74NqLQxNZYOMW71/3Dy24K7vVyPn3d/Tg8XvZT/DSFcHje786Hi3xN8X6Kd0+n8+7L+fT2/Hj9/fLQJfvXt9P3fsPPK84R+w4K7tc4cO7Pweer+PHwvBBPVJMS9xSBeLXikVJdF/eeUlDyhRq43mdiLS83lLQOEHO9AYgGDwCVfFOAECi2dUCMNqCBqTKIqLM+xEw5AgBT0IAUKAFAzlQNgCkDH0okVxQgJ0ogrNWRdxrQKAKTahlpmhMtcQMaWFxkDWDygEpcKWunq1AjrAOaaMgakCkAH1ob1J8BTAwyLYC/eZ0BbRi5BqgawJ4CYKsAWLOVI9UMAU2Hlcu44t8V5+b+MBDNUQCIrkKnukUqG07ozLVCCWswZGpMBWfOtJmuE5tkukD3CgGYWrUmbQAqW6c3ANbpRB5UkACyMUk6D6igDjDcqKNEVk3SbYMTBWyS6ZXC74wryJBPKqgiDW2U8KJGYViFGsVq8Bvk02FlRxmbxDpx0tsYd4FmwipjD03F2xplcWKjDRhuhE0nDCBTATb1VmbaBpPDXqebktswKegwLeKwiqgfQ8jsv6nSALx4r5hFYFHz63POlESDc04mqSlrKToGuZZZ7cxQcRTLOqAEOyNkMCZQpbJv2OHeRmdY22i8Nkm2AZRr2ZnMYMyyUOCtzKxA2UH69b1P8zXhSSqbpTNrHI9Uru2uxiQxMgKnZbWN2umAe1m1nSlkuE0na5CcoOVekmBWYwkRSLMbHWIhHwG1nZ3SffUGOXO2AXSNIGXOss4z5LUwxrx9JJ7QHtOFfRwa/1N+9mhN3iyscE1yYwTMjB51vRZNXfUypaAxyT4MA8xt0bl1G1T70Ct1U1w+3h/ET4fj8fqeXv5vH9BydH18x/vf);lineShape=1;" vertex="1" parent="1">
                    <mxGeometry x="447.9629627557372" y="194.95923789049368" width="87.8378534960683" height="5.9540258552086325" as="geometry"/>
                </mxCell>
                <mxCell id="13" value="" style="shape=stencil(rVjZbhsxDPyafSV0H89p+h8B4tRG3Thw3OvvS9XV2qSsMQL0bS1zVtTwGu3iH963T2+bxZn30/HwdfNz93zaLv7T4tzudbs57k78tPjHxT+8HI6bL8fD99fn8++3p2bZnr4dfrQ3/DrjDJXSQM787gvG/134fDbf716vzB2FKMwt5To3j2StMI9U89w8UZXOVMphbl7Jy7fbSMbN7a0j5wSA3Y8JAGLffwWUTsBtQKWaBMAnCgXwGSjLI4dAwc4B3pCTEYiWigGApFmK+AzBaZcSOwmiFiol6VI2cIeY9A45UAEAdsAoQOmhvAnIlqyMQzF95TYgU5I7FAsDVzwFtYOjCJK1FIpGAjxVUDvVU5TZWnAcKtdDlQCOPWCJAXEAoFxiwD8HVkCmCgLHgCqTr3CyoJKunZO1BXCHAS5Zww1L8srEVXzqKou6JjL4EEUGoubeNWcAVRC8gtKV/w4D4M4ZXPggwAwAB/pMLXowtEODCmJATgOtyKXSA3sVuIIKggEqDpYSKojSh9N19mGXqh/yG4xDJlENOK4gNBBbjToNuFejXgMi7gKKJT5DxEVdsmYJaYCWahJQDexkt2vU4grSW0TyKPuGQ3C63uE1y8i1jMedSbXjSzechlrJkwsP/wvh9VDhY6N2yVMoDFWKMrzNuaAjEUHjaJNU7cCKBvDUZrUiFidHUwNDH3BIhSYd61bWAMCKJsp+zDQkkH6smdShWaBYJONSP+IKsF06znSfkkApQr3ByjJKQNN9IA52aBzRdD0+U8dBttfALIFcsla3V59xPyYj4+b5/gGyO+m5y3I9AfugRxavoPvJcH+w61i9aW/6eFrtEznAqNGEtgsI8MeQl3xa1tEgAKyB1ft933Fir3KOI4h0uhkKE5bZMBUKFAzrzXStADKgYthcZSc5yI2TzjiYmky9vgh7+PYoM9n0tjoxV9IIj4EPXuLvmvPD5XvBy26/P39uuP5ff1/gpfO3Cf/4Bw==);lineShape=1;" vertex="1" parent="1">
                    <mxGeometry x="443.20509580509156" y="163.5427114957024" width="102.17927980189549" height="9.696216528967437" as="geometry"/>
                </mxCell>
                <mxCell id="14" value="" style="shape=stencil(rVjZThtRDP2avFp3X55p+x9IhBKVEhTo9vc90+gOY0/mBKS+hcQH78f23cWbl4fb5/0uuJfX0/Hb/tfh7vVhFz/tQjg8PexPh1d82sXPu3hzfzztv56OP57uzn8/306S06fvx5/Tf/h9xjlpdQIF92d84dy/L76cxR8PTwvxIMUZ8VK3xaO0bsR73BbPkrS4H/iL4lViVuJQR2zvkqMSLxLbtrgP4pu2xklKBJDFG/OT1EAAzUbTd3FEA8IfkwJMLnsCgItFA7oEAojIp4lpkkZMitmalJzkvA3Az1E7nYrUQgDQoEs0B6kkzxkG6DzkJpk4nbNUraHwSiooY62htNFHlwFFvNZQ4/Dqcml78TqstYonYa3wQVd3c0PnZUCXrkujobpIt7U4CmEG8Ci1KkFHqSUapY7SCBoAr4hJPYzqnwFlxO0yIK18gAZCAh3tEi2A5QGA1CwgM5P6KOaFD4xTATCU3ZokQjMAdA1AoAtJnHfzEJgRYVT8pgpNGx1dS5h+ckKnuldafQAUnYjepPO4Rl19k05uks8W0AkxTQZ4C4iEZwAwqYbTVzRkY1KhAwKAZFIdB7e9F+DHyHinSQ0ziyVu5TR4wbOWW4UVHfSxxLV5Em/2qLOAK9Vqig89GnjLmfKG01d4pq/Cyubu5R6lcV3TQJL8IaJB9VXOfba+29joNhNhNCDSPK6Gjhdx+F+INKptYRQdKmEMqaXbLE5OQrMAR9yeJqnhAfQQG71xZRKIg1Q4tgGzqSMMLBPYN4qepAhDIiZho3Fm9HbK+NiZ3KqtmUnYyprZaDxNHPY+09YV6wNbFOcDYAY4utFgdw2aywqoieQB27HXJuU+9uWt/dtsljmOYtna8E3PJVATOzqKvYMSMs2ODvCQzkOs/HCa95cZwH3AXWX279DpSeC9XXbhVaa34vrQ6oRcq13XpyCwG2XMm1keiSe1Hcf0mFmsjWt24063l3Sld5+zFxCOWVYUbkyOhTxrZmeXMaSwUHuCjqePkoi/c/RmeU9fGtxgw8Vtz1aG1bBt41TZEjdtTzd0iJuWvBIc05CB1ubqqvKDujfEzQHDn3jmX9/EGYV+8L3pqjg+vD1t3R8eH88vY8vf7VMYvjo/o8XPfwE=);lineShape=1;" vertex="1" parent="1">
                    <mxGeometry x="441.86092099274583" y="203.52801127433622" width="98.49450189693832" height="10.230647997920528" as="geometry"/>
                </mxCell>
                <mxCell id="15" value="" style="shape=stencil(lVfLctswDPwaXTHgA3yc0/Q/MhOn1tS1M47bJn9fqBqqIiRvJzdZ5orEYhcAh/Dwdnx6PQye327Xy/fD7/H5dhzCl8H78Xw8XMebPg3hcQgPL5fr4dv18vP8PP9+fZpWTk8/Lr+mL7zPuFjJuwnl+WN+E8iVvy++zutP43m1XgJV3613TDkDQKZceoBQdfcBianGDuAdeQGAQDH3gNyC2gcISe1jDiQg6JQopA4QmXyAADGARJUBQFmSDiBLVPuASqnPg9T2iV1AdlT7I000IEAk6ZWRNTPgSFlZ72nNQqneB5RA3O+gbxKgtSbLUl3kuA9QTrgHCHmQBwWkXny6J2Jp+rsPumYqKAam0uehFiiNiSUTtB4SJU45MY5jJkbqi5TYboF4FaFSLSACy8VCeRO1AJpiaFpb8RqA+qJvIa4yx4Am3YF7mmqkjGLIxOZI6lGgb1mqygLwJIDW5FplXAAOakNN7aoFQMsxRdnsAIIumriwiQEZQshtPCoRWo7jJg/pPmCl5lWqHQhCpWOalr6JqG6oNkzUKlegviLN9GtDgKi1WFr1qeVQS8ktsWsAUl9pVWJdN8AOwhv1lVar9g2htXTj0Qz66KcBPjXpLB0itiazDwg2D1mlARLnPUUDcLDO+E39TniecbWNCguAYWFymaSXtxYSZOppoOrlPU0byEFCoT+SzjMB5MEp633QOjFVFIO3BtKZLCGW2HY5nfoyMFChYObQBItxav1pWe/g+k2NwZMGk7PLGajINTKWaMmDYKOdcPHZixUQQx87bWPJrIdqqLYRKlnIlGK5xONI2BQiZRdwH5JtatxMvc+mOtx+H5VeLVumyzp4XdBBofS13VNA2f3kHez/6/Xh34XvZTyd5vvi+n97QdRX8+UyPP4B);lineShape=1;" vertex="1" parent="1">
                    <mxGeometry x="420.3639160437133" y="162.6920772325468" width="3.939534209427886" height="27.450502286054455" as="geometry"/>
                </mxCell>
                <mxCell id="16" value="" style="shape=stencil(lVnZctxGDPyafUUNBnM+O85/uMpytBVFcsnK9fcBszXaRXPZKr/tAZIYoNFogCf79OPxy/eHU04/3l5ffn/4+/z17fFkv5xyPj8/Prye3/zTyT6f7NO3l9eH315f/nz+evn+/ctmuX364+Wv7Q7/XK6b0vN2UU7/Xn4waf3/H369mD+dn4N5ScFcVfqk9jPaN5mZ2dca7HOWNOj9Ldp3KdQ+l3jcLL0y+6TRvssk9x/SR7AvJoncf0jt0b5LJ/EfYvH+1ePTmH2O/tcqg+RrSIrxbFlKYfbaon1fETjyP8Kt55WRA/sS49ObZIq3FvEzkjTij/rj4wNGoQfQKgpP6FLt+IKcRGNIZ5Ku5IKCNTOVYtpUUizK4WEgReYYzoZnYFHdQDwxSkZgWrxuIKwqSg5dTQYAY6zM3L9gd4ZeaVibBzGWgkOvkkM3z3R0qU2KJf87xeJsbTl594JuojGsW7WRxPUuFi+oQ0Yi5ZOwfrz+J+OXgv2gqjRWoF0UGKxJJ4ceTnmRgosfmlHYXH+/c7CzFHHJ60uBtG1VyNETegzrxoOMtRvSaq5iLEpJJvQ1W3E7ggYQvfMII0oHX45P0CGNwbvIhFbeF7XdvyBhr3IuZFRZGzZnLdIINMqugJyeJ3HJkTPAJY5WZz6DKHl/IOBzeaAxSpOi29MKQeJYdXmj8cidklJ2rgdSonphQw0IAKrvdMqIASpL8R3ZTyjO1SqO/IHqVxkEQ/53jRhKC7ZH8YQ+klZdHDVb6P+JUoWHr1ewZ3Xs6QRIJ6o3N0EFNUPztQlOoK6VwPv2E7VCoUW/3T/6U6ke3OAe79+ksvw2ZKFOm4E/HvDjepzhrSx5fK1H5fhpoEPofOPpMRCodF7x9JcC8WH6fauv6E+RQfhnq9/ojxMSURTuj8X4Zyq7/Lwg+FUyj6dF+7SawhF/dqwXyp9VMt4/Mf9/0t7aEpXX+LBGX1QmaA963vIO32t+Wdeunn4YuFYC79sPxE+nkrQZDvhjJfC+/Xt7u/ZH1k9dczdo8UoT4PMeHFg/mEgVBzQ1WjIuSHGn4cKF7QQK9iSvOqZr5kAF66gYrOpTQhr1PLC5fTpPwGLD+KJligFQXUGyzYnPY8BEhY5Ds63R5P2CSbWBxxVqp35whozbCp8KC5tuJg4rLmqNrSsqyomtQNiwknFS9hmwErj6mAsbpp4+GhpbfEIvVIK03fzkYySdY+uOA9Jayx2N1qCqh9EFhE8GuKbxKDEa090CYlJd5NgEnTZt4fdoMgCh4/hlKw5TnDK9QjprtWXXOhMXmz6QtY6PmIw3MrK9H6LS9WDdRcnIGQp25zF5O99tpipt5wlXX468Tu3h/h+sBxOmYFs/Ev/Tava3601qD+qxZYo6xSVWrSsCB/YNGFLp0kvXsvpmvUzlNa5nfcJmI35efe9mPU7HY8Snz9eMHXcLMpcvRu6/35rw1we2Gv1N62cdx3bTK3/9Ydgz+dsVw56c6csGW6uCG23KtCZ2S/edYKEglpUrTYROor63/Vw82PYWVSA37+g7d2Zg3PlRx25zRgM5sTvyNE30nYPgp1/gfWDuH67vCr+dn54urxpv/8d3i/7T5b2kff4P);lineShape=1;" vertex="1" parent="1">
                    <mxGeometry x="436.0694423877412" y="235.76192391910877" width="29.84858577704548" height="33.73908968385233" as="geometry"/>
                </mxCell>
                <mxCell id="17" value="" style="shape=stencil(lVjZctswDPwav2JIguDxnKb/kZk4jaeunXHS6+8LjkauAVlr502msCaOxRLUhh/eX5/etpsU3j9Ox+/b37vnj9cNf9mktDu8bk+7D33a8OOGH16Op+230/Hn4Xn6/fY0LMfTj+Ov8Q9/Jlwk7gOUwt9pIVOcFr5O5vvd4cI8U47GnCnUdfNChY35ebur5p2SNQ+UZN08JuLk7EMA9kI9O/vW1u3H9sFFmwqwF4pi7HUhrttzoGr9L5RBvFyo2WJVygkUi0mqse9UgL2oPzZezTAKWBoFV99CAnYoQlwMQBmBQqiJsi2Z5kiAS7VRsy5xpAo41zKJA1QKGQCUpa5lmBqgXWdfZk10BDH05nkqMlf+OqD7RpBKHTBbAcXuUBJ2qVOzVCo3d+iOq5kaSOsANANoiQKgxnDJdltrVHEMxdK7Z2KgXgpIlq1aGSRI+rrZGGLAkqSIbBG6aWYIiFaBu4osEJleqVlu9Di3yBqgWEATEsS+SmILoU0oqNTVF6JiFVBAdezLmH0qTE6JO+6g5g820bRiQLMxaI9WVOnuDxPBOqMAcT0aoPSNhrAxlJuy0W1ah9yCtF6w+Yw4K8nqFhbQbtC1z2k/0zVRwU3KroMqRaxMwXVQxzu02eMLAJobPg9g30F6yKAxbLx2PZrmM2PtlMsWUAscxbSFq2Wf9iijg1eHMRtDKVDJlJzJFq5EKiBL40yzdNUVxvNMsfotPLfI6sDkDt40d+2dE5lgJVuOfLoDqsOVmZLnytw5tAqW7+VUPBINKr0cu3UOhEe7H+vVHnm0uDWoQxk4tLiUDCkGDb2480imgu4Zi8OEqYMiB986Sgo0mIQ5uvNA2YgBTbXC9v+VtxX4r6JtG40bnHsWIs8J5n9hrxVk0MgLf0YGoD8uXqVsAPxZ5DMGOI8s6lVnB++jg84iQOc+ecO+aa4P/y/zL7v9fvoWcPneX/51afpwwI//AA==);lineShape=1;" vertex="1" parent="1">
                    <mxGeometry x="509.1944997598687" y="246.05373140479855" width="58.04354927698266" height="3.2162732947457093" as="geometry"/>
                </mxCell>
                <mxCell id="18" value="" style="shape=stencil(rVfLbhsxDPwaXwm9RZ3T9D8CxKmNunHgOH38fbl1pZpca9ICva13OSZFzpDUJt697h5etpvgXs+n4+ftt/3jebeJHzYh7J9329P+LE+beL+Jd0/H0/bT6fj2/Hj5/fKwWC5PX45fl3/4fsF5qmkBBffj8sKRL79efLyYH/bPV+aJSlXmibKfmzfyQZl7T8nN7eVz8xpQKGUAyBSiAoRIsQFAI1cUIHrKICT5v6zPEBulCgBMtekcZWphDoiJmBUgB8oRFMFT0VnKTB4cOsmhddlKhHXIhVintVRKwEMRYmhAdRSAhxoo6pDkTQAearPUq4k84B5XcjqtNffK3CarVNp4KLAOjYmbBTBQT2sUtNoqTqsAsmarpCFgD6ypwSIp7KFpD5yxRJ0j5zRiyHzqQiuoBapAQQKomkxNFIQBv5vEADBFhgCv07T4TLDUNVtAw9xIzobUQF7lszeAgulabdsQAjPyUHvWB8B1Pv4lgAvslUtIWhAcOr2mh9Z1EH5DukpaDaD2kTEtnFFQwYUTakTrwYMRtJDPeGDKGGBmLrt3NaoFxIkCOPQtjUppsIJMG2gyFnFMbOiaqGHJZaOgSgUDzGhfMo1LzZquV3n4X4i4OkXrnWE6hVan8IB/y5wLqzyB9rpMUgMo3edsVpuhIqUL4AyyDVTjwcN+nHhFWO4imW00SWdJGO6Ah7jeNxrcRGUrM2ucrA8J0E/2PtuaXF8db4uO+/+NnSlBzflVHfIIcrYdBwMIeAXq3XpsogXO9tR3/7Hqlq7B2wF12gx7RxkMFNcn4FjWG5wnrregYV972Sf20VwGMjkYj9eNWE6EZrSzWpaaR1DhVRf24/40s9f5l4o7UN+xYg+KUoHhJy0BiQZmp5pqUURDxybH9S1uYh7ZmKPG+4/31HfN5eHPlfhpfzhcbtTX3+0VWl5drt/x/ic=);lineShape=1;" vertex="1" parent="1">
                    <mxGeometry x="499.8270818734836" y="256.1621020856869" width="56.25852270159802" height="5.457584008887485" as="geometry"/>
                </mxCell>
                <mxCell id="19" value="" style="shape=stencil(lVfZbttADPwavRJ7L/c5Tf8jQJzaqBsHjnv9fakKK5s0dmy/6eBIPIZD7hSfPrcvH5spuM/T8fB983v3etpO8csUwu59uznuTnI1xecpPr0djptvx8PP99fl/uNltpyvfhx+zV/4s+A81TSDgvu7PAiRavn/5Otiv9+9X9hXCk7bJ8pubO89uaIBnjgBQKZUNcBRrmPA/DoqgGfiCACFYrYAF8aAGPr3VkAhD4KOjdhrQKTsx4AkaTUAR6mNATkR6zpU8iBJJVDUZYhUQJlLo8LK3pEDEddCxRt7zmN7DlTZ+gNKwExNf1+KCPLTmHKzNc7AodbIacDcGqBkAshBA4RFgNgCMCyKhRrIqQCadkloEnEMTSc1M0Ucg2FR4V7HEcA0Z10FYZhWHTRH8igGtmnlTAyYKgDnLADWofZWXAGOKugdAXjtUsXd3Er3eE1rgt0jgKoVKUcKKGj5g3YpBdwPlZz+g4ga7IdKydA7dSdHADYd17qTo8Ilo3lMgSGgaS6JyEBA6zlZAfkWvc00jDINwSiZO06nNeHx6Z2zdBUpLzgI1k1dMkXsUzGjIXUxHAG8ThN7zG8RCQPIWJi4D6cLABTXRwEyH1gXotROr+EA0vyWHm0AME84o5XSQUBnZITWYgEeVFpeJ82+UigDMs1LgKZGXbet4ZqhC1dzZ/xwkTGVdlRApUVV2rV8gz/IHE+6cM1TRABnN42zPt+5UF404Z07q/ARycDVUiz67MBEuVq6z3o+sI86qS1DLXZWKFugAvyXDVrziOsN+2hGrocj1/Vt+WKABmhvNFJ6swAFu9bU3DvjPn/mxeqReKUv8iP5nNsCxmsHW4X2V3yQ2Yz589gh77a9XJxPlG+7/X45kF6+tydQebScXuPzPw==);lineShape=1;" vertex="1" parent="1">
                    <mxGeometry x="496.5816978685252" y="277.75048700119476" width="43.15035138741375" height="2.0726483984612782" as="geometry"/>
                </mxCell>
                <mxCell id="20" value="" style="shape=stencil(rVnbjhQ5DP2afrUSO9dnFv4DiWGnxTCDhoFd/h5HvakuO12nhbRvffGpSpzj40tO8u7748dvDycO399eX748/HP+9PZ4kr9OzOfnx4fX85t+Osn7k7z7/PL68Pfry4/nT5fv3z4Oy/Hp68vP8YR/L7gYSOpAcfh1+UXi/OXDBfB0ft4DItVmAYXG10OAUEgGkCKxQEAPFpCoJQDY/t4AnUIBgOz3kIUSAhSqdkm5ETcAqFQsoAhxBIBGYpdUKnX0Bt1iN4DKJB0CSrGAQpKPARwoW7c2gW7lSMFyqTWK4OCYqYgB9ABPmnXFdkk9UgNeYt10tgCmBN4giaJbklAEByfrG4QKWFIq04kbQN8JIk65GZMHZHDSJfiTVgDiUlHyOUAmASFaNYCqBxTApcYzvnaABtzalP3LGxCX9FyF/Tk0sAd9HruDi5SBl3qhbgFK7/+i/Dagerc2VT4EUJmx5BuOBtraFyErKgtoD4lKtACGcq9OdF7KeT7iNkAD0m46NepoD2HK1gZQWQD0Vq93Gw+agRoCVEr2DZrjCuBSKxQtl7gSA+Vriap9Awtl4FZV0mzdqmqLdGkwxy5Jkxiid13yg+ZVlB80G2QbcSPVgyVpvqn2HLSYCIAaNSzKRwGIRtFjtUkUp0Slcrc+KtBFmsPFhtsma4dCbA8tTSbeVvrqa6sEiT3qov4H9pJnZrquH6UqbjNXXv0TQGRqeu5OjuYCj4qe5ARy6tlte55RuCOQgAPW47f71SfASpKSsy/zBA/sHT/VnoF9oLo+HxyAhrjl8yhE4fNj9faoiNT4suellXEGBFV7tx5NmYAQ4Yak4P2y5ZueVwb5TwvO4u2RQIQp+zvFauD50eeyoXCI0LPM2q8HPr9Vb58AP3nm6p0/YUBSXOxRecALfxJMMpu3d3yL4PlxsmVnj0pf9aezL7NjOLD3+9V4hHxu4u0jWE+YbNznVMCHMN++s0+Qz2HxP0owazwm2HCF5bxk9kdH61/0EyWY4Iv2yHf86arRuBWD/4t9XRpS3IRraeuKXZheNH/FJf+C49J4cfovsJG7psNtv7AH0vzu9Hxz2GH9UJ09ShejPunOHtVvWv/wYg/or/WVK3LDLBBu128yu6OrfUd9bl30Acqb1p/Z2vN08G178frAML2MZs31GTC91Dqz/5VvaPrRgi+46+x5j5oMNy3R+EIbbtn3biqgDbUx1VdMHGA72ZZJg+45od6tzxDcAB330NEnVUkwKXWtSWwUp4Db+jST9AaoMG60S3c6qpGEdHdMGmzglztLar6y0djIINR6961PTRAQw5KcRkuKBjLdq3vD7YNuIlm/6tFEkA7Ur+uMCM4mNN25N1RqaGzVfMWru0IdQdumi9eWBovkEI3kX9FBkI5hHXsA6tMHdxZABn4dfW7wgASEZow0oweg+aF0X1kPAPCSpGV00KHQcPe9xNg0AhTP7ztu5WUyNpaELhG658Z13nd4ieD4HWF9qgCXQBueW417DTexj5MstwHZt+AV6/foWF3OCrBnHC2rZWvJcNqtNa+jtxIeddVaFroyLBfc5sQpEhvgTp8ZPDVSwkrmZWYECFhR9QN+wZOi6lOcCJykVc9UtWe4HpfgBN+yVF+IjYEsXL+/c7xTyPjGSLTyBPttyyVogGP05jVbTxDlkb7MkzskUPcDa/2lw+e7C1BdP6PGOvgrJbkTM398TXwfoB+ut9Kfz09Pl0vt/f/+Flt/utyAy/vf);lineShape=1;" vertex="1" parent="1">
                    <mxGeometry x="421.4865075056821" y="301.1999902944758" width="64.85229019717622" height="31.687455475432955" as="geometry"/>
                </mxCell>
                <mxCell id="21" value="" style="shape=stencil(lVjZchpBDPwaXlVzH8+O8x+uMg5UCLgwuf4+vbU1gLShMW8c6hmp1Tp2V/HpY/Pyvl4F93E6Hr6vf29fT5tV/LIKYbvfrI/bEz6t4vMqPr0djutvx8PP/ev8/f1lspw+/Tj8mk74M+O8ZD+Bgvs7/1CyuPmXr7P9bru/sk8Sorb34uJt+ypVn5+LuHTb3nupTgOcREcA8KgqQKqSGgHUBSBTl4KTlDQgSA0EEKWaGxx1aWJJ3xCbBJKFGCQEDUjSiUuxSNd5i05KJXn20rsChCyNAcr4+wyAtkjQ2Q8HBgCZSSQPUE7WLvkokbAEaTbNUhefiX2Roi/IUkkE1UvImlTJhdjjuKIpkkL8aU6ctQ/En5bG3xd7Vputidey85KI/x3HZWPvyfm92eJHQKSUex/HXewLiRf2qT/AJ+yr5iePZnPLvut4u2RSZN6d47tSaCUKnW7QDKEGGrliCkHfMOWMA6LRRKJFgKQtC5+y1EaZXwE6l4Wv1qXGWAInWhdIdGIxVOuSh7RYDNW2eJ/Fc5cswEnnNxiXykj9J2PmvWVJKprTQ1mDdlmtLWTBx/JSd2jGzP+FsNPo9p+sHBBA7P9Xm+FeBKb6faFTfNle7nNk+xcGGifJNEiUWnyoA0N2bL2bAOEhwGImBL6JLIcOAHQKYqp1CwhsrCHTC0AkiwXmcvMWwLowBn8sNg+NqA+bRTMsNZq4Egbr5/IPNA9YjpqWN1a+QmLA+tU0S1j5IpE31mqvpYGVL5KgsSWbRXu6k6yQEZu5lkZuNHHgJGtA4eID60atSCWbJBCC0zVdQStJHEreNAHI0ZOaxsAvOoYWpfAHHtMpW6GtFX0uGEDnFWfXzp7o3pZsk+mFP7JJ1xRNrZZw6sfku8xavkj6seFcXeBIwIucYfp6ojs31uQrgiIRthsPc2d7R4f/Yu9Hhjs934y2FsaTxi17LbmKbYAkwI3RerZPd+yT7hSoMpYv8G9eKjT6YOHHMne2L6Pl3xLQQy857tvjw+WNytt2t5tfyFz/b9/A4Kf57U18/gc=);lineShape=1;" vertex="1" parent="1">
                    <mxGeometry x="490.31862302042396" y="304.9181624242739" width="58.176985309075164" height="5.757774917999257" as="geometry"/>
                </mxCell>
                <mxCell id="22" value="" style="shape=stencil(rVfLbhsxDPyavRKSqOc5Tf8jQJzaqGsHjvv6+1JdrGNS3nED9LZec1bikDOiJn542z69bqbg3s6n49fNz93zeTvxpymE3WG7Oe3O8jTx48QPL8fT5svp+P3wPP9+feqR/enb8Uf/wq8Z5ynUDgru9/zCkXN/X3yew/e7w1V4pOpUeKRW1sMbuabCvcS39XgfKAcNaHABX4hZAUKmxuuAwOR1wsxUPAC0ZceXlB1xWAdwoWw4SuQi4DRRMStUamCFFCl4BUiOcl4HZKG1aICnCADFUUkWUEEOpVLQSacAk66RkrcAn0ArSYpsAQEUrlWqzbLEIOnWKESbNKJVAClrQKIICieAqpPOoj+UtDSfXiFXSoBW7y76XRAlU8J7alpyUhpGmm5UNE3tbhJRJ9EyRQzwutT9EyiHSqVYQEUr1OV7F0ChAnxPAN4AeOn424BCTdeh5sU71wDGBYrQALzyBsCTR+06bCkzJcySSToVrNGBVtFoxgBTONFoQiwNrSGABgQxNl9iasg2hvZOsiYGGAHlDM/QWxpl6K6jDVSxY3DKjUZT7yZhrKzFe7was+y1xAoydnzFw/9CDGfEewv/4ynUAR865zoAdPh4knYAqMR4VnfdghX6NOAsANlrnzdM6fKiqrWJJhlAgO3XZybTfpdark1lTk9llYkr0FCxSRdMq0yWUecgmkP2KhvWOxJVo/6Ow3jSYGP4ZbtXVol8yVE11irDCdi/s4KOMozD77Pmp0+tMN7r73ODg7coV+uAIzkwZgweGcpyVqzFa36EYYb8GP59Iob5BmOQVOF2ojnYKILuccsd5LJ72DzO3knwleSDl7y74fLwfp982e3383X0+n97/5RX892VH/8A);lineShape=1;" vertex="1" parent="1">
                    <mxGeometry x="499.941682212306" y="320.94270457957055" width="60.897534543995185" height="2.736474183630075" as="geometry"/>
                </mxCell>
                <mxCell id="23" value="" style="shape=stencil(rVjLbttADPwaX4l9L3lO0/8IEKc26saB477+vlTdVUTamrRAb7LM2eWSQ3JWm3z3unt42W5SeD2fjp+33/eP590mf9iktH/ebU/7sz5t8v0m3z0dT9tPp+PX58fL75eHyXJ6+nL8Nq3w44JLVNsESuHneCHl94uPF/PD/nlhXqgEYx4rZVm37xSqXb5Rzuv2MVDNBpALMXAoJuJuAUIFASoVCyiZegcApswWwBTrOiBFajZINVFkAKgUowVUasClJBRt1qoMJ28Csh7RutQ08REAeMRkBlTiBIhRKFmXGlMDzKhhBHEAeiBGgEbF7tAzJZAHPaJYLnUNawMA8ezuTAGEVddz1cOBAiAfR8rJAiJxAIDm2cp5vLkJkEjVASqMkogvUe6U0A5Kte4BHRxaAc3twMSgCSiAbVglUAHkU4DYEpVEGbskYgHa2UA9TABLDWmw8Smg25oWzCUFFBulKdDYpZg9APVudYDDFQCFlamIBySUOB5/z4BOAipuikn1YU3oDPN6i8S9B7iiBmrG6pJrxkq+hAHZHlrp3XFYm91BC6jhHf7kdVmiKKzim7ECULtXgG9kPHrhaolaLrHAOT1RzWU6wkPHoK3U0TXjuIoPk1TquPV1x40+4rAaJrcDY37LIOeiglC/n9az3FjE4X8hop8peuwE2KFDyHV8qXAI6VDzfSATg0z0K1E2VSnYQUd1cqkLsFuqGGA3eRmOapUb2U2tCqdWnUf/YlSjuaiSKboailABqShzs73LkMtrsq/YKPU2NNFtYcleTfcCS0gvBE4n9jTIsiaO3aFV9kWQuNj9IG16qQBtIJbRV2ZAhiMizlFfqOmA+sYQI7N9gZcarS575CKw3qoXiXpDQdIh+wPnRgFlmZJdXz0U0DDCUDp/eekLY8DO9pkqtHciQDNSQYavB8MI2Jq5rcsOCReu7laQbsG3iQwbV6BmYx/hTS/4K0wY2uE2lYdyfzNHPU739qujwRG9lNLLOjBXmjnaDDm5Yv5PXyLeNdeHt48eT/vD4fLNZPm//0iiry4fWPL9Lw==);lineShape=1;" vertex="1" parent="1">
                    <mxGeometry x="483.0298123660493" y="333.3682943435043" width="65.7309005656426" height="10.529636036342065" as="geometry"/>
                </mxCell>
                <mxCell id="24" value="" style="shape=stencil(lZ3bkh03ckW/hq8ncK0Cnsf2fyhC1FAxsqigOLbn7wcwo0537Y2zoH4TW5l1qgDkbecFn/Lf/vzy0x+fP6Xw5/dvX//x+X9//fn7l0/5Pz6l9OvvXz5/+/X7+K9P+T8/5b/98vXb579/+/rP33/+8e8/fpqU87/+++v/zCf83w++/IhhMqXwrx9/iI8z/v8f/usH+W+//v6OPD1av5GnR+5EfqYb+fg5JD/u5OURzw+Q1x15FvKekLzeyI/HwU8/buTno2QkP2/k7RHbB8j7I+A2HU3IGz/9Th7Do33k8THunn9/+5gevXyEvjxC/cj71EfC9z/Lnf54FNzbU97n3Jzjsyt9P1Cq7gc5tusXX9HL+/fHwVJ7f/8UHvVD9PFR+P3v6z/VAu5Xj3f6/EhMf//eqRiYXrRUfQQQxvwIh9KTahhaTN7nuHbwBX0S+vNSjC/os6wnn4f8qPfzs5H3rLoqh0dH+nY3Ejk9Ar5Pv2vanFEzP6X7SV8eCc5b0fXP9ZHhPI+nyfscjwTyW67/+6Q/r198QZ+j0nc4n4Ne3qfheRj0YkY7yu+gv+9XCddfXn3v/byViPq2XNL6jr7h8+N9PUt6VDhvRZ2SktHNyCrvpaB+Huf5fv7L0A+wv/lxZqVvLI/yPsf1hBf05X6ey4n6PNv6N1zPod9kf8f5Qfsi+rYOe4H6VuxdjRt6ca3qOA9oX+r9PNShweC8Pa3Pk75cvt8LejmftW58vSDrc1wadUkf1T7W81qBF/SHvE9D+YqXNnjSd9TnUdfniKjf4uVNPekT6s/xNKHP6AwPbXPXb0e5JGhJHy5v6klfUX8G9TeOYa/hfZye7XW4vIUnfcPzHNQ+Hv1RQN6N/hz6/CPPP8eOw/4Glfczob1wevbfnJ71s9NzZOf0B/qHTn9eJ/YVfVX6zufnLu8n+292/s9+hbav6O/nv4XLgrySx7v+bBH3K16r96RP6A9E1Z+DnuQrqj/W8uZ7xT9pBf2B52l/0rM+H9HNff3bieH10Lfy/u2RUD+LPm8do/1hL+7r38Mm/g1d6RnakPXpcecP3M9bT/j++dJ+7+jZXxX/pyeMl+sVrT/pM57/Q/2xQd9gPU89n53xh1P1Qy+oP5viD4O+wn4NbWD0J8ljUAerDweXDmi8nveOIZFEJvvkiiYslut57xjIRsaqQW1nIx8PRUUGA+1ybKrmBkMntdIvFOTJcKDdGIZAN/pgYCpd2/SOgSy3QwuDoRAUN2StKgP5oqka9HigMzqkrds3UDQ8oU9hOBFeGPKQD2Ug/yAHRYoHQyKGaGfpxH3IBjkNhgKrlC3GnQwU81U1spOBXukwLXYiyplPNbODodIvtGsR3zFg3NoXv4DAR7jihncMFHmXaDvdLudqzZAUCxgMkbCnYlqjXV+1ZnBF1tB7KYeGH4OB4NcR/Wf7BbInI/wXQGMygIhW8zg7RzgjoFeT3tDFqIbJ7Biqgm47huNxfuwX2kd/oV9e7zsGwikOc1QnAzkyq9N6wOEbgXQ+lYGgqKMq9t8ZexihcTZ5aHC8j6Zo8mAgtGIEu6r5OtqHEe2qv9cR3xjhqwA6kwG+YcSvpSlDol84Fr9AEMqIMNWH3jD01S+AiM6Y0X8BtMYIGiUNtlnW5kaxX3pkzVAskGmYKBxxXTQRPWGVBoNAcVOmieG4kNX3yhhsXPPgoV1/ecUg6NE0WfTRzcKB81ILa4ZuamaYXYpPugIYG09gxJu6SueVw1ozGGQwPTL6hbRwdMmrHCFeyMpAIPCMCd1Zh2UdQZiE9TN+oG+oihuMv5C6ny9gIU0GzTcYBIkfL9noF06FnuYy0C+ctnHpsquvGNTnYzBpnhxRM5GPxmmKLGD6eR5mw2MIT53iIoBYw4TjYJAYaKoFYmiXRXsyHBixvzmd7zAxcqWn2pKP5qTa1KR33TpRQP4F/eiAaak3a/AO9wzMEO+rNM0kyXTXCOWsrDW6pmaHqcejYbHomdACTQYBhyOrmX5t08Vw9AtW+KsMHKEsGJ4x/F/8huE2UvwwGe77MBxTlGlnYEhwwRDRsC8YAoK4/tGbrJwfjcoggh++EeRQXclkkMRoQWD/zUt9MiS2QCZxMxQkRdYtd99ZzXS10+XkZW2a3ZrZeDoaTQ17yZiemJpP6gMiRrszCJOCkY4+32SwipTNK4mDlQt7Au1y2J4M8YIVXjLcNy51RLAmg1RxbVy4pu5P4jK9t3D7yZCvTM3LZZVviKwqm1ZCpYCZw7fo+WKIjb1Ki3YjY5WTwYoZ0cEyeYgFI5TJcP/o+KwCfskg9YyRJe5ZnfpkCFhW7Az9kqi/+EacYJ304gewp94s47s7qVoxsPPeJMM3AtmNvri76QWh3Ol/SsUPO1anmqpNFHCY/mKn59C8RmZntaqtzSxl5Ypn3+hxfYqGPVzAMIIiWx8CMnpS9CZxGBa1UH5jloNqlYTfO+Kbps+nCGmENxLwJMyXDHpxExKu54iGqj2fMJLD+w5IHtuhFUsJfbtWFc/jBPeMtfT5lDQYoZZWPDNylhUIG/QgLyMys/UneW/x+rx39LRfwSqe0Qs8LbKLDPGeWpETUT+fh1lVdG5G1HeIQUKM+jTYPKI+PLOiImwgz6jnOXJBQtAcEtMfXSs+I+qfw9DmDX01F4LpiyKQEd3dwztAmN4qtJi+9ktc/yL9+bH3r6ZPNvR5cT5BX1WrKIroI86En8oL+Vez/ljXhxK7M8ep34sJyKyefcQC0RLVXsQrVF7Sv9XHv9FTaJJPBcciFxRYTjeifs5ZA5N4Kfg1vdXjRNTnOag/w/TDXS72PkRvKekNvSHdkSs6iuISG3oD9zf0UXMsm/cPmgWNGCHFvqCnaqjm9g4LsJvbU/I34qm4Z+SCw2MhL/T+1Trc0H+LlqfbFKAWl0fyP0cAa/qZ8PmYtBotoj8cn+L9jp7eJyj6Ejkd5seBybOuJpEbkB8RkWu+V0S+UJ1EbtVhEVGmqoFyRGyjuJyTXbFGuMglVVp3yu+efZsSdiVFtaFoUxRoDegCWw9QwMKRrAc+XHWDL8iTkpN8WzgdUL1mlaaAiaiswXRAMMZis4C2pKgq5rRB0V0NKKtmCANWEC3IyQ+3l4kIY9inbrwodxJISdo27YTPVCphwXbEuAUmK2AQNx2EJh5UObwQPnLXF6JNWU5THOGqB/xraokhb1N6YdMreah4sPB9iNz0e0AcwqxHwD5ws038qWb5uEvD7OqO/PwIufkEgRFK9TiY3B2aDb05TKxU3SFji+AOX0AA3R3KgAGeO6wB9YE7xIEdaHO4AzvQ5tAHLBrwgCFgCYAHJIEdaAt4AgbkHlBxiY4HbNzx6AFhQNuzMpxIbwHtht4C5g29BeRM7wH/hj5qSntDb4AUuy15sT7YzXBqtjlgifsEdHS/yCSWqABTwA7DYi37gRsTqgI6PDFnAmpqo6nCZgJ2uv7kYNToAB/p55o1ociA1ArQpOBkBZgi/QKQJfoV4Iv0C0AZ6ReANdIvAHGkXwDuBBitAH2iXyUMkH6RkCD7u0p40PlZJVQIgFslbOg8rxJC6LotEk4fS2jxxBxPmAUuZLeEHOsHT/gFTFB5QpEDRU9YBqxE84RowASGJ1wDFnB4QpcjKE8YBywEaiaPAdtkZsL7I/aiNfcPkb5rUQ+vT7eRBnweenR9RZFRt8F/m5rsrB3IEfGjXjwhQR37g15LknDi1WwFtgQ20R+e4E+wX7PxMQn9pri66POxQMpqtjLqt951pEHmBg7zN8quGFYa0SpHp10j8U2BVFd9vinAGu8vVdW7Om+t6L8e8JL+vp59V9DmIxWpZb93c8jirgZbU6iZa8i6uQQFAbd5hkSGKzq5XiEdt7umCHljsbf65RmXbzoGpNCFM+VvLW1PBp4tMRlEknl0QjdXblc36wzbkmoBX/L2LIn3PauLN3XkMvHu2B2NJL/Qt9X2UrTNJQWu8cqmJtFqBMr2eItPOqK6zVkSJTBr4TdaSbRquApXX6pJ6RhIWKgxGWS0WOFKdXNEZk8Cb5xYqhkL8saJKd/3VQjDpnMjhqDlp0fEtMqKY9t/oi+17XCREt19D40ybLt0pOh53wekDNtOIy2r5jz9giHtZE4LsXn0kx/wc+9p3KV6xIZ0NtwVOHma01QD1he3cR6kobFxOar3AbXMDSvdJnwVLIj0Av0RYVEFilfEt3PXsCIlyq3h0KhFf2JnH9f7pnkMsjfddK4+eBu78WTgOugZBsjwhMztVU3t6GbU1GwslWkLldXxqUhr3+y0jyvhaZiLruaNIqtq2jfzfuY4LWtHRycua/gwW35pH9KqaZ92Oi6GuuDGrWaDYPNTWM03oW8wjGozfWTIlyTROrfdtGbL2hjWaurqvrUHvsJttFmclfFQWwKUb+ZqtLoYYoEDIKpCc531UrNx1tNiUGY4W9N+532INhagY/34nA1i+0ATBSc+Wo2BANvVfBPKcEwzLiWfgWsF5pAW/wmqsveRER2P62lZps26zlE29kqEOxxtMXOFKrfnOB77BuqDPqxGovNw8aPYwJ/O0xfT4hewRDDaPCuOm6q1N70hC2sGH+3U0TVeDI/aMPh4qg2DD8DaMPiIrQ1DXMgoMRQHvTq696WpH7oZi1QOG8fDg5eK5Q3ewI41Q7EJQX07EM7HUxGDKwGeQVTCYiYXOUzZ0JbNuLbcFjOIsFjuNJescQ2Z5WOmZ0plYVWBuM433uTVLCiqkZ8jGG1ZKec5hzzaN5APl1dTjigLOHE6c1zxopxmInqifUg+9PTEs5QssTodftjpVHQ4SOdALllquDMKPGt97KM33Rnqwx3obETDBucMUy6f0umcB0J90Qcv8VjVWBezZHEebjG38sCUWrRbfOYsWa7Z06nBPAArBkVQO89dX83PpWjXw2me9GFFNnO+FnlXqyHG2LuQ7PnoZhjgULkKxqS/YE2/TyEsm6J+p08k+zZMlSF1KyLpGY1C1KRvT5t7MVQqE0aHweZxctVJsPPDVXJWFNvYEw6a9J1jxPD5Yj5GuEtVOUHBoRGLUtIxqNVvPFbiCbO/gxlpjmBQlTUnQjJ9UXqSl7C414C8lmBD1sJVhviKXu6J6JietKLMsyG6bUmG7b0SwaBqvrdC6Xf3Yij97t4Npd/d66H0u3tDdD1395Io/e7eE4n3t/eqCP3BI5KC6vOD/XY7nyOap2A/2D07B3qLhj6M4J+cxaBF+fNeHvxeCf+OvJHHYkk2gpqDFhkfnB41fV77Rh41m8rzm4NlLhlmjqrf6saF03voakX9HBURqFzhETWeqRnPs02pqQmrwm2KfmV5jJrhrJuqfz3/pfNtCWofC4/xTFZScG7utRRMs2zvFZVZeTwP1u4JLQX9Mbuko+Rdm9qh9JRYz5pFLGnXJSr7FTf3YOp+7e6p9HsPuWFRUiy58w0JCtxkHqbu9CfqqxU9r78gsfngrgttIsp10x4tmE3myXLZ7vHM3BWkObGcMOBMWrSXeUxHsqGJgYEFK8rkyfQ2kzqd6N8mrcuaESg+Pxg9VX1GuyeXx8rZvYSJ48Go9vGtl/SVvZApVokvCbKpYxHjcZ+aFjDXEa3dn5Mp0ZoQGsNG1tTBgKLd2xhP7tKz+QMHXkgRFbqb92LzvZDy/nzvld0jubnX2+m5atvpucvK6Pka5AU53/omq8MAdlRlzhfCRxupvLmyTraWb6yOqtkqz4+xC2k3fp7gdBmLEE0M00aqdL7p5nI7cUq4UyEtGv/RJRQXI2IOOnlbJwF6ybuCaWWS4osBs8/Je0CpR8Tw44DghKVfuKPKfIWIpiovBgjxBAUbFoEvE/WIERZv8xkiFgttycd//PHT9y8//vHLr7/99uf3b1//8fn9///l67fPf//29Z+///z8059ffvrj8/jXvwE=);lineShape=1;" vertex="1" parent="1">
                    <mxGeometry x="400.96357518677155" y="223.72823606745317" width="217.05730341266514" height="176.49973518928277" as="geometry"/>
                </mxCell>
                <mxCell id="25" value="" style="shape=stencil(lZ3Z0hy3DYWfRrdd3ElcO8l7uMpyrIpjuWxne/uQUXpm+qDno3TnKMQ/JJsEDg4Wfsjf/f7T979+/JDC73/89vlvH//16Yc/fvqQ//QhpU+//PTxt09/zP/6kP/8IX/34+ffPv71t8//+OWHL//71+/XyPVff//8z/UX/v1FbpQjhiWVwn++/Es9LP7vH/7yZfzPn365jm9Zx2cYX4+SLuPbEejvtyNGGZ/o77ejdxlfG4zvR24y3iqOH+Uyvh+pw/hxlCbjK423I1YZ32n+dnQdT/tv4cjX/RlHLDA+HiHI+JxwfM0yvsD8LR1B51MNx////36OH7TefC7vHG9Hge87x9frfGI4akCBfv2BGI9EO5TPD/QQmHtASyh6JGI+Au1pOfK4ChSe0rzE148c61HhVk6BIWuY14Z+oR5B1jDPBW1rPdJVIIUj0i5NxXL9DikeRid7LvG6SymfuuOdQLsevfT4E+8ERBfNy5lZQJTLPK2Jd2lcp5TnfeXvIIcvp2PwlOyqv3JBhboErtuapwr/tl/o2ylddynbUXnRskslnlfqrcB1l0o6b/lXfukybxzvUr/euDL/hY93uy669N3REEVWxvkn3grIog1N4bpx11+oU/PxhytXW17T0UjN1CNfF13LaS6+UmvUuSpeQ7wevtpPTfVWkYnA4F8ohwkgCUcgCzd1qwjEU/G8E1DIk49MR6OoImuFQcMUENDWjsxTksPX5p3mXZLD16bm418o1zX0cDT+BQVi6YS6bwWui+55ZxTlePfCRrGcJvAh0LaLFoF+6pGvFbDd4ROBEc5b/rUCkbW3F8isjKeAIMqJb77pS0+no/EuVZlSY1A5Ba56aboFtrkPV6M4tt9B3CrbwJ+iBmUhd/5wojWmAKp7h/kmFt/skpjdBa75PpgIzEnSLlV1Vpfl3hiUqgIbvCQfbk4psX3oQxeNDlN1i04M1puarHk0jLDGQ6m8HL5KSOCh3F+PN93p5m5cYyTQ3I173PK3AldlPNKpbd8KiNYIR+JFi8DUrYMO34NYeAjU07d+JyB3elog1N7thIQvRnHwLyh02Lhl/fQ8X6ADau9+RIEOga9oV75hAqzGUxIHf2K+wlMagioj24ehlMZExninxxEFSle+ouPIzn/AwzfOJb64NJnuwzjBzouXVXhKXTzFzIdvnLzfi2uJTJGdmvThvA52muyIItAYYD2c4YdA4UXbqYUeAonJHNMPlwLSb0tA6CJjx88U/sQNMjaFP7Ex6+AFKutWU6AbC3Mz5vilzCDRThP4QnmhEpibeD18caJK3lahEePmtI5TMb7wfLiGoTyfseIbak9sNyG10nxUuwKNzgaxnz7hCzHO5k3gXmPSsZ0q8aGGd1BMjmnd+W9jyHjcn6L7WVnJOx63MBzOut7CXvo88U3GIxeYnJViljieuvOhr/nGxDPu8hyPBFRQtiejUzUxpnyvjLp6jpfzmfF7jaGEWMb9GV3nkxBLLRdQ2F60ZgvxCtmLdNt4EFPP8QXOzwTIcj4TopzpVXddL9GwE083nT/uZ3RmBuHyhN+qoZFt70M9r3heoPvxTXnniGZygXWdPzlFPSsHFtGZ7VHxU0Rw0x+s4Mt4uF9tKNW5Gd+clefxRe9XRPvY0mFBx8P5afE8js/xGb5vNdU/TDZX5xbEE8Xfj28nbnuOJyJ4eiUSeA3oalUXiGTHaToxQnAGxOvFThj5HN9gvcXhjTke9rO4wHpAfThdpBxlPNmjkv35CfT3k9cPFIgv0Z8f4u1L0P2f+g2+73TYJIbK9HJ2DhkTGnO8uOrTHtH47lwZ5HCyIxsy+rgrqicO5RmAvR/voqcZXYDs7lfm+RePxyL9/azr5YjdHC8uCfue+RHaesGH9L2iOiTMfeboSAnen6CJLo/Q1+346a4InnwE4+7HD58IVEH/r7wWie0h/pzux9DxlJiUHK/a8Dys7RgynhiY5MISDfHDgtc6H2IW1vXTv0/fd6kDTQQivLfgnQTQMK6/4JdEt1CfL3P7LYlD0zwIBTYQT0bTuKphSHKOl1jydPgp8ywOBehTgOIdU0ARXMQjFLv7BcbQU0B8tpgQVMbmQHrG9LlYHWriiHt0AfRYkSeILnAbGxqaOWPNNeroCcTs8qUM+ay5iT51iHzb+Zma+FYcFYpBlftKG6RFO29g6m9Sp6beQGbzN5TCm3jBYMldv9rEU6S+mnpLEw82mH9V7TjxbIaTXdTbqwmvTlHqeOJ9MmdZ402Vc4yS5lVNf4jyHpPmCrSKAeHorFlHuOW0dTPWFMq+TP+V9sdp9xXLAnMTVFtPf5rotaCRrE0uRVC91SvScQ9a/zG+4fkPej5X5gX+fbnwfZozUinK9nVD9zxqWvQIbGsUHY/d9xVrOTaWxkWA84nX3p1PQQeVDdPRZf4N6eJHuOAxfqC1Txq8GoYaPan3sxKrCf5pSN0ipu8578E4AOLTnBOasKxsqHFOcXHzz+huuzS5lftB9I5+L+NAdDud8cf4gvPpai9Whg2Fe9Rbsg2sCS6No6I/H53FMNZYC2kVFSAVGrvb04Y5REuJmgokmNIKSbhfIBC+YERQAWIJc7hZA7rdLvd9M6Xs4gJLgG5CVMdsCcCUSlHP0hpTVe1mSqQciwsq24OdeUcuqnppGJ2s2UUz2Z2uzp22RyXPO/5VnKGdgCMQdgJDbchOwBQEToFASincLJpIzJU84xZNZqpFZW2f+fbvaPnktQZ8uOZ4h2f6/DsBzQusCKWaS7d8ZvTfC1S36IaxqeaKxjaab4Lp4M5Som11KUFLL1F4xCVZrHQw2NYeTnr3RYA+3ATgqow7MnwTgZeqAqRbJwQXCs7YE+/NnSXOqZugWmDhyr2iKQ3F/cY0U/e00UBgO6KyCSv3igKdSV2pKUAZPhMpZzclo9B0ceDEkKSZ2FqNonEwuGtqlnFa0xQQdvyZe/VWwFSAAPQq1KwqQNBh9JtFE0O7BNyU6HgPl9s4BcgJXgJuWwnlrl1yi96Up2pysGFm+hTQsHwIpy96L9Ec0jXMPx5NfeG1apqTS2M1zrUaLjawvhzt650AlgnfTYn4l7XorAKYr+G4XeMKmCXgvsPmjio6Ma5d7hoSfybyvT3fbtHEvN7eIKI97u/oZkpu0ZjH05X5MGP13TXxZ90HVkzKHRhiuCUgofHdHf12CVdqt1t2udFluLH55nBghlS6UX7EwU5T7W8EZeQvMODuHPlNE24oXjfc1glopFLIBqZFTsikwJIL4ruv4xnov07YpzeCWwB0xz1PFEeh11WJ53Ai5a40c7a945de8DuqAGnX5rLDrCO/19odmiaAX2+wLkHX5srUrCOKW45WcALk1XhXruNpvXEWG5r2G3e04dG4dXiR57tzqYlYvnXa6cbd0gKE4m6JBxS4ozZQ4I48QYE7emaTXda+aZcWxeTcUczncvmzxhGWRZN5AcrQinendUP1OUVGFyh71puv6A1d2TEL7IYQ7chJLcrVqUripHwkbbNL0XW42dy46KswG3LrMd1MCYOZQXMDbdNTwiGHiofVL7my/dHqq1WJStfNjS98FxyrURDllpPdehlP5jA7hVTwEGV36PKpx+8PndMuGeeTnKORNtFDteYJo2nRFeVycrKnxwMm5/vo5yYZydX6DOQno9Ixg5PHwqk4H+MrYkIXDZ9gnXRE0PYOq3oAx2tBMSfPB72/g7NfgobGOvv/QaO9nTFzcNH5jo5wUHjaOYAT1PT1inRE0NzqzsmiQZnenjGVLbhcv4TR9qDR2OkzkD6Mqq+a4f5HjRi0juxidNk4nD2SdH8WEmZ9KLmoTF5mhZgTElLPCxchqVwp7nLtJ1wjFNH0vpSKBthxUxN70fl0QGtCL+TMVf/kjG6Ey7XPAbPFVm3ndQFpA4JcdnVijRjdkXumVL0DQZIvHQ3BaMz6kSdSo6LyKSCNtWLFUxR9G7jCuKxqVtGaJAuIoli5lzQl14oiclnX6kPn0nw3ObXFCRDvGrsjjZD3isMxa6y7hhYmDMSu0Zxx5WNhLjWNE9GDngpOXV3gRjtqIlaMNx07KUslKXjlXAcPXjl4nFyhX0UidKVGacdUihol1wqxYuR4/bwWPmNmWvOFFbje7lJ1sdDpWZf+HE83MrkWCYVtZbgp5KFMNpc6mfHCz/GusIi81exSdTP2I8lZC7UyYwnXcTSjL5AfrtpzPLUwytUXjlEmaq5KoDH2y03BQUJsn13fnITYL3dnitH39wldETnM7FqpRLSS2XxhIGVNFOf8REzLmNBK+Hk2YCVpoVbAQrOSfaEoNSJYvW50PqRvS1MwF5AzuytEpRSoVejq/j5hY9cYIaA+XIW6WuiKmW5FyYWA+rm6dly8/6uQOct4CpFWdz75PLSozmdArL4KvXU/sRLEFZJz4bMvVA9oj3whfOAImyut2Yx3hfyb8VmB/Wa8i7xuxne1d1yW1oc684EbXwSlcwNm542bwmqMNCdNbONC72chwct4ipb73tRYWTOqNmbhzkGjafZVPHOf3o1XN4wbm3TFV9zoYLjeYRG5x2GarxAxwDycvo0YizLna7P9NVcalJC7MEcGJe64lRQvJXRq7aYRCjb2ceWGiXuBOv+CKyl8+/e8azgs5zlzg7GqZBzHAm46UfP+N53/pruYazRRuHtrV3tRuYOza/9XEQ+v/Ivr3+fQ6moUpo25sNGTKZk4uCWpa2o3uHGTwwObFxDM6UMGfM/kvBcB7LxvSg/GiL0szCXtrrpnrMZxjH3MuOo7icIN1fykmERdAmLIGp9scy1ROvf/9KqauaYlcD3bG3C2vrUox8R1yaZ9idf13xw/mVJjfecSPtJgA+VSGXLkaLIpYs8c/jRTfj1zdcBK+Pb9P2lKQz9c4YjFSlr3PUx5SlrxPZBjX2lnolcjX6ChhrkW7kvcNW9g9ZKlNXTX6J6x8ko7c/1wNw10xVlfmWY8JUlaacahju5im+mMJr0TkIzuXvksdU1123U+dgKDXd4bgcSNW70ARyKsK6m6YDpvqxb8DnRDrKm6H5x5/Ex3etjdyA8ONJf1kVhVNrXUlrHJwrNG6SFQdh2ofTEYLto95mLcRsd8bVdnOFlc1VLj01ruKuD4hQLNvitsdourzOXemFZceQ13rzD3Kptt34zSjJ24ez9Ayw8C0pSWNSt4PV3GL3HpBeKSfMsui6WxJ+Ne1hqb0+p6zj1Lq94JCHLdPV7hf2HzPIYX2PQldgK7Jz68AAfnbwQ2z5RkZcxW847Nl77eh1WbuPkF95gLvnbhTutKUqejUVxnfC6WsaJmdz15w78gSqBxSxpzCbKt7J5aEaZnZYTzL0iobj09xAJiUNbjRiwgwa66aXPt2IzKmRvLoolA5bPkqlrrptNy0ftQE77p6J+AqpG/Q1VwUjYgserhW4998etgmgHExcLLTksKELersKqHr2weIXQNecvmeYyqgbUSMVLjnwjM3BRpCfin6fj9MW2SzckJN7/A0XRz76fmhKnE5mp/Mze2XQLXX1gJKxsIJ+3TOj84UB1jWndP0+nTEhtO072hltLuyUwhNVcUb/PulbDcmxvncrQjFxSZ73tX2aBkDXTGDXOa1aDEjdl1ob/FwzGXrrEMDn6bywRfz69yNEAzyjhca9GVIbI98RVLTCG43N9NlaO5bhjcJ989XGFoS8ZwdZrcK8DVQvADu77AdmwrqV26GpebZ6XT6RYM94Zq54pi54Cy/zlckmTncKHDhVzgMzy05XBnVs6Xa5r8uwCNw7tZw7X8Nt4cL4CtoRVf44UQ4/NzMx7vS1bikzu7DNcXmlO1h6vKbGheh3MhKzf7cJ7L5oH1b3/AfTN+/sfztfgfP/3885fH5l//f31dfv7Tl5fp85//Cw==);lineShape=1;" vertex="1" parent="1">
                    <mxGeometry x="371.0748237171838" y="217.50594822922312" width="251.65126981806813" height="186.8051090751819" as="geometry"/>
                </mxCell>
                <mxCell id="26" value="" style="shape=stencil(lVrLchw3DPyavbIAvnl2nP9wleVIFUVyyUpi/33AqDgaNnd6tDd5jZ4hCaCBBucSPv24//L97uLlx+vL8593/z58fb2/hN8u3j883d+9PLzaX5fw+RI+fXt+ufvj5fnvp69v//7+pVv2v/56/qc/4ecbTl2TDvLya/vB///D72/mjw9PO3Pv1E/m2ZXEzEOZn64uUPsE9tGlwOxLnu2rC5nZtzDZ2y9Vju2DkzTbF6eN2Wuc7IO6Epm919k+u1io/fz8aOdJ3GX2s7uiPZ/u18/RkNRlvt/ZXym7Rs7f7Gd/ZQuoW9aTi/P0+X5eT/HOk3gLGJ8lu0rPM7bJvopr9Hzy/PwaafzHEV2bfaP7TRg/zTsh8ZNd9mhfiH3BfGnmwXps31xRtM/k+WrLBUCkCWZ80DwCMlmREUJaAI0sqXPEnGMtUR/4Oo5kB2CkFSKSqAEK2XSU5VizE0IrsQyv7gCebDolpwEBkSzJ8haP1SoByeTcMBUM0JSEXkbuasUJeUPVJVjLoO/rAFvxsodGAE2GX3cARo9t4ZfuB/aG5AK8IVE/2PMSRGt0kYSGnUmYKbgpzTgDpJmDa6EZZ4A8R2s9IY0FUOqtgOSEZNwVgJ7uYfaDFR4WrR0AlS3Qym+AAqXWqJ4vCQHGfCyWNjdtxb9Rsl83HePoDg9DYz5WY6rI/RDmPVi/E/iSBABGz+yU0qjHW8dmBYCwd683c4p6TpVWMSMAEu3BjDWwiYwjyw95aXZc71PIHqrHsm5FjJFAMU/Px+p5Pli6FNiDUD/kpTMxAFtSqkj32midToKeNgDLhxgWsdAGtV2v09YL1gXAukkZ/70DVMKtFgi14SmxfLDnxYyAygAR9d2Jp02gpSWWGAl0Rac3AnQBMKpUwY6shzfxgwHqsgchCWQA6Jf6KbE9yJKiOjqowyUtjmOtg50SMF8PDfYGxTbUAMLfEJbwZmKmh8YSrawNNQCekgwBewRAfS5jInCoHxYA3cMWCDvHRRYa6xv4hOTKHrwLt52S56LJ/LAAKAksnu4pSrqZHktleQMDLGTcRzk84zAf/ND6H8+4cmtOexYatqQllirPaeQlXuOuMJ84ZUS2cqtQDXQ7II75126CxiZ6vQLNb9BtSHBY4yICIkmgXkWhE8g0467U6UzrdO8ECgIiKYrJyHhZUmKAOmTeDlDJknq/lPCUGFVaRwY1zgCMNXrPB/1SHT3aUVcJPV8PDfKGus3+dgUlMtEkGK0nFch67wY5LdTTJgcEeEm5aMp4Sn3mx/RDGaObnRygSrFik2gKpTJJU3HTpoGUKZSGU+KQaBtqgAhjZc5LBoAKZEqRqt2G4tW0aCY5bQAIb1O7ib+hzbF0pqfbmPV8VLG3oXg+OBNQEezhCh+nX0Mk2rn2Rc2uq8pHIW1scgPwWeIaHJa2jL8tXiEjTGMXPhUAdrVf2BT+fb66AeoYvxzN4UA22a5oCgleRBkgn2j2gACmgqriIHvn/MOBqC6vYMP+TQ9/cE19qCsIKMQRfWy8LIlW3oI1xQCBZGkU5OPObqwZiONCaQdgMqiP7yE26ukFgSKA0Wu/gpAFwEV7TcuSWK+rOEfoAHpPAzOsbk9OtSDf9ypG75lkWQ+jsYDNvdVhJdTqsYZaZ0D1OsqTWuhtxdJc1TiuYA7sIfstvZU5DEezltws5hQHfMXzORGej5UqqkHxXvPkXlZHu7wVW37vq2Nes9nryfmDyOj31nT9cKkRld5z65U5NCsgiveyQU/2KyBWC73XF+yc+005oZRFDBvHsO8YjEVBg/ELk+WiqzMM4RMZN6RbfFKSXroci2a6WzBXSp+CIx6luSI46xDa1ckY9r+bs8tewSsSPgETJBKhvLnEzYnaxzAW+rXAlkO7tdOgT/h0OgLCRlTo5atiTVSqLW/8runU3P54/4Tq28Pj49sXWPv/x0+u7Ke3z7XC5/8A);lineShape=1;" vertex="1" parent="1">
                    <mxGeometry x="561.0814222610229" y="406.74255520992983" width="96.7384684504892" height="42.87989664647398" as="geometry"/>
                </mxCell>
            </root>
        </mxGraphModel>
    </diagram>
</mxfile>